<?xml version="1.0" encoding="utf-8"?>
<!-- Generator: Adobe Illustrator 25.4.1, SVG Export Plug-In . SVG Version: 6.00 Build 0)  -->
<svg version="1.1" id="_x3C_Layer_x3E_" xmlns="http://www.w3.org/2000/svg" xmlns:xlink="http://www.w3.org/1999/xlink" x="0px"
	 y="0px" viewBox="0 0 3000 2000" style="enable-background:new 0 0 3000 2000;" xml:space="preserve">
<style type="text/css">
	.st0{fill:#FFFFFF;}
	.st1{fill:#DDE8FD;}
	.st2{fill:#93B3F4;}
	.st3{fill:#FC9694;}
	.st4{fill:#12123C;}
	.st5{fill:#EA8888;}
	.st6{fill:#0D0D38;}
	.st7{fill:#1C1860;}
	.st8{fill:#6D89CF;}
	.st9{fill:#3662C1;}
	.st10{fill:#060632;}
	.st11{fill:#EB9090;}
	.st12{fill:#A83F3F;}
	.st13{fill:#9E332E;}
	.st14{fill:#AB4E49;}
	.st15{fill:#FA7C73;}
	.st16{opacity:0.4;fill:#ED6966;}
	.st17{fill:#FC9290;}
	.st18{fill:#211D63;}
	.st19{fill:#0B0754;}
	.st20{fill:#AB4747;}
	.st21{fill:#E75755;}
	.st22{fill:#FA7269;}
	.st23{fill:#BED2FA;}
	.st24{display:none;}
	.st25{display:inline;}
	.st26{fill:#ED6966;}
	.st27{fill:#3961C2;}
	.st28{fill:#92B5FA;}
</style>
<rect x="612.62" y="171.36" class="st0" width="3000" height="2000"/>
<g>
	<g>
		<path class="st1" d="M2827.92,1517.78c0,0.16,0,0.24-0.08,0.32c0,1.21-0.32,95.49-168.18,175.76
			c-134.87,64.55-320.03,91.8-469.49,102.91c-218.85,16.53-472.92,7.78-692.55-10.39c-82.86-8.04-217.09-5.57-355.95-116.61
			c-162.17-130.8-224.11-369.48-182.12-538.47c30.8-121.99,112.13-214.78,220-282.78c57.3-34.33,111.69-49.08,161.98-53.27
			c31.4-2.66,65.65-1.07,92.51,2.82c45.72,5.84,89.07,17.32,118.38,22.48c24.54,4.78,53.03,8.65,75.83-0.8
			c33.24-12.55,67.8-57.53,102.91-96.7c84.27-95.33,186.44-166.43,311.46-183.49c528.5-72.12,523.14,473.94,496.89,529.69
			c-3.54,7.51-3.22,15.55-3.71,22.72c-2.5,34.49,12.09,59.31,35.94,79.94c0.16,0.16,0.32,0.24,0.48,0.4
			c4.92,4.11,10.15,8.14,15.71,12.09c29.9,20.79,68.9,38.28,106.94,59.71h0.08c2.18,1.21,4.19,2.42,6.37,3.62
			c1.13,0.65,2.17,1.37,3.3,2.02c28.85,16.84,56.73,36.42,79.14,61.97C2823.01,1356.36,2845.65,1419.14,2827.92,1517.78z"/>
		<path class="st2" d="M1632.68,1316.96c16.6-5.32-1.85-122.01-7.25-156.74c-1.05-6.85-1.93-15.23-2.82-24.34
			c20.15-0.81,32.8-5.8,32.8-5.8c1.29-0.56,2.1-1.37,2.26-2.58c1.37-15.07-33.93-147.63-52.7-170.76
			c-6.61-8.14-18.94-11.04-30.7-11.77c7.98-22.48,4.84-57.94-3.06-90.66v-0.08c0.4-2.58,2.26-16.76-0.32-30.62
			c-0.16-0.08-0.32-0.08-0.48-0.08c0,0,0,0-0.08,0c-0.4,0-0.65-0.08-1.05-0.16c-5.4-0.73-11.04-1.69-16.84-2.82
			c-5.48-0.97-11.12-2.1-16.92-3.3c-5.16-1.05-10.39-2.18-15.79-3.39c-3.46-0.73-7.09-1.45-10.72-2.26
			c-2.34-0.48-4.67-0.97-7.09-1.45c-2.34-0.56-4.67-1.05-7.01-1.53c-19.1-3.95-39.41-7.82-60.84-10.56
			c5.08,8.7,9.91,18.45,13.7,28.77c1.21,3.3,2.18,6.77,3.06,10.23c-1.93,23.37,0.65,46.74,2.74,56.41
			c5,23.45-13.86,36.18-39.97,62.21c-49.96,49.64-47.14,98.72-47.14,98.72c0.48,0.24,1.05,0.4,1.53,0.73
			c1.85-6.45,5.8-18.78,10.31-21.6c-0.08,0.56-3.22,16.44-3.95,25.14c17.97,10.72,51.33,35.05,76.32,53.67c0,1.45,0,2.66-0.16,3.71
			c-3.06,33.12-9.59,93.24-11.93,141.99c-0.81,15.63-1.13,30.14-0.81,42.23c0.16,5.16,2.1,9.51,5.4,13.14c0,1.85-0.08,3.46,0,5.24
			c0.08,4.19,0.16,8.46,0.32,12.89c0.16,3.38,0.32,6.85,0.48,10.23c1.29,25.87,4.03,55.77,7.82,90.74
			c4.19,39.33,9.75,85.1,15.96,138.45c7.09,61.08,16.68,131.35,29.9,215.41c14.59,1.21,29.01,2.25,43.28,3.38
			c4.91-58.02,6.85-170.2,6.53-221.13c-0.16-17.16,3.31-67.45,6.69-125.23c18.46,53.11,40.86,106.69,53.35,151.9
			c0.89,2.9,1.69,5.8,2.42,8.7c26.35,103.55,70.03,174.63,83.65,195.18c4.84,0.24,9.59,0.48,14.34,0.72
			c10.56,0.48,20.95,0.97,31.27,1.37c2.26,0.08,4.51,0.24,6.77,0.24C1691.67,1595.22,1652.74,1415.19,1632.68,1316.96z
			 M1571.75,944.9c-0.8-0.08-1.53-0.08-2.26-0.08c2.34-15.07,1.77-31.27,1.61-35.86C1572.64,925.23,1572.56,936.76,1571.75,944.9z"
			/>
		<g>
			<path class="st3" d="M1217.07,1266.97c-11.46,0.13-26.21,0.71-45.18,1.97c-15.24,1.01-35.69-3.41-57.34-8.8
				c-23.57-5.88-48.56-12.9-69.79-15.33c1.18-0.81,2.27-1.61,3.27-2.39c15.31-12.02,114.44-139.85,114.44-139.85
				c13.69-3.14,41.96-33.66,41.96-41.28s13.01-30.96,10.58-34.55s-33.92,8.53-41.55,16.21c-7.63,7.68-19.84,38.63-19.84,38.63
				s-144.72,110.56-159.83,146.1c-7.77,18.26-0.5,38.59,0.7,41.69c0.01,0.03,0.02,0.06,0.04,0.1c0.08,0.21,0.13,0.32,0.13,0.32
				l0.01,0c7.1,17.09,57.02,46.2,108.24,66.87c15.33,6.19,30.79,11.63,45.25,15.77c0.12,0.04,0.26,0.07,0.38,0.09
				c68.81,19.28,108.53-81.42,108.53-81.42S1255.7,1266.52,1217.07,1266.97z"/>
			<path class="st4" d="M1324.76,1006.35c-14.49-5.82-33.85,7.32-33.85,7.32c5.53-11.42,32.57-12.55,32.57-12.55
				c-54.58-2.33-59.93,33.19-60.32,36.54c-44.07-28.07-92.89,55.84-92.89,55.84l107.51,101.66c0,0,4.89-19.88,16.45-15.88
				c18.03,6.23,43.81-35.65,25.51-81.94c-1.97-4.99-4.09-9.52-6.29-13.62c3.68,0.92,7.76,1.47,11.4,0.86
				c9.61-1.62,19.99-28.58,20.56-37.14C1345.97,1038.87,1339.25,1012.18,1324.76,1006.35z"/>
			<path class="st3" d="M1309.63,1256.72L1309.63,1256.72c-8.06-0.24-26.38-26.35-33.97-72.37l-3.41,1.29l-57.24,21.71
				c0,0,4.49,18.41,7.49,35.96c1.54,8.96,2.68,17.7,2.64,23.65c-11.36,2.37-18.99,4.2-18.99,4.2s-39.24,48.95-39.24,71.49
				c0,22.54,88.06,6.98,117.52-0.8C1313.89,1334.08,1309.63,1256.72,1309.63,1256.72z"/>
			<path class="st5" d="M1215.01,1207.34c0,0,4.49,18.41,7.49,35.96c32.98-6.52,45.4-39.71,49.75-57.67L1215.01,1207.34z"/>
			<path class="st3" d="M1206.75,1225.83c0,0,78.62-11.93,70.44-60.78c-8.18-48.85-3.54-83.29-54.09-77.74
				c-50.54,5.55-57.15,25.82-58.38,42.79C1163.48,1147.08,1186.09,1227.68,1206.75,1225.83z"/>
			<path class="st4" d="M1187.19,1092.15c0,0,31.13,53.68,65.5,56.59c34.37,2.92,47.18-8.32,47.18-8.32s-28.66-15.81-39.81-49.97
				C1260.06,1090.45,1198.79,1062.15,1187.19,1092.15z"/>
			<path class="st4" d="M1193.3,1095.9c0,0-13.87,15.5-15.69,28.59c-1.81,13.09,0.75,38.99-6.86,39.38c0,0-22.74-36.22-8.28-61.31
				C1177.8,1075.95,1193.3,1095.9,1193.3,1095.9z"/>
			<path class="st4" d="M1190.64,1098.34c0,0,25.41,57.42,70.22,69.63c0,0-47.79-29.85-57.99-68.87
				C1192.66,1060.09,1190.64,1098.34,1190.64,1098.34z"/>
			<g>
				<path class="st6" d="M1305.9,1757.28c-22-6.85-42.63-14.83-61.81-23.77c-17.89-8.22-34.57-17.25-50.04-26.75
					c-1.61-1.05-3.3-2.01-4.92-3.06c-12.41-7.82-24.01-15.88-34.97-24.18c0.08-1.21,0.24-2.42,0.32-3.55
					c2.1-21.11,4.27-37.71,5.88-48.92c0-0.32,0.08-0.65,0.16-0.89c4.75-3.14,106.78,44.08,106.78,44.08
					S1309.29,1735.6,1305.9,1757.28z"/>
			</g>
			<path class="st7" d="M1402.2,1777.75c-19.58-2.34-38.28-5.64-56.09-9.67c-13.94-3.14-27.32-6.77-40.21-10.8
				c-22-6.85-42.63-14.83-61.81-23.77c-17.89-8.22-34.57-17.25-50.04-26.75c-1.61-1.05-3.3-2.01-4.92-3.06
				c-3.3-9.75-6.12-18.37-8.54-25.55c-4.92-14.99-7.66-23.69-7.66-23.69l44.48-12.65l117.9-33.6c7.49,7.25,17.41,17.57,27.4,31.99
				c18.21,26.27,36.34,66.08,38.92,125.23C1401.8,1769.53,1402.04,1773.64,1402.2,1777.75z"/>
			<path class="st8" d="M1382.88,1333.23c4.25-24.44,2.83-42.75-8.13-56.78c-14.07-18.02-65.11-19.74-65.11-19.74
				s-15.69,57.12-27.41,68.65c-11.73,11.52-97.82,21.08-99.54,6.7c-1.71-14.37,34.38-65.1,34.38-65.1l0,0l0-0.01
				c-11.46,0.13-26.21,0.71-45.18,1.97c-15.24,1.01-35.69-3.41-57.34-8.8c0,0-15.66,39.34-11.66,76.51
				c0.48,4.46,1.25,8.87,2.36,13.19c0,0,26.66,6.25,26.36,23.76l0,0c-1.33,39.81,2.34,78.64,2.44,79.29
				c4.57,32.07,13.75,65.49,17.6,92.67c7.07,50.1-11.03,98.64-10.52,122.27c0.52,23.63,187.57,4.6,228.5-32.88
				c7.71-7.05-47.01-88.48-51.68-100.14c-4.69-11.67,51.97-151.07,51.97-151.07S1378.23,1360.04,1382.88,1333.23z"/>
			<path class="st9" d="M1369.91,1383.72c0,0-56.65,139.4-51.97,151.07c-99.26-130.29,21.1-186.27,64.93-201.57
				C1378.23,1360.04,1369.91,1383.72,1369.91,1383.72z"/>
			<path class="st3" d="M1495.97,1501.46c-2.98-23.34-31.94-86.07-59.48-138.28c0-0.01,0-0.01,0-0.01
				c-19.96-37.85-39.19-70.18-47.2-77.94c-52.53-50.84-97.47-0.81-87.22,28.8c0,0,40.31,45.37,77.73,93.24
				c31.45,40.25,60.87,82.26,62.55,100.57c2.09,22.67,8.02,80.57,14.92,126.86c0,0.01-25.44,42.67-23.84,60.35
				c0,0,6.9-2.81,11.88-15.26c4.99-12.45,8.2-5.22,8.2-2.41s-4.82,24.1-2.01,33.34c2.81,9.24,14.86,20.49,21.29,18.08
				c6.43-2.41,18.31-60.21,13.38-70.68C1493.97,1608.37,1499.41,1528.34,1495.97,1501.46z"/>
			<path class="st8" d="M1309.63,1256.72c0,0,54.01-2.47,73.24,17.05c19.24,19.52,38.76,53.18,38.76,53.18s4.89,75.39-53.09,88.18
				c0,0-78.17-92.67-71.89-114.44C1302.92,1278.93,1309.63,1256.72,1309.63,1256.72z"/>
		</g>
		<g>
			<g>
				<path class="st3" d="M1624.38,1754.7l-0.4,32.4l-0.08,8.22c-12.17-0.73-24.5-1.53-36.91-2.34l-1.45-6.04l-0.08-0.16l-7.58-32.08
					H1624.38z"/>
				<path class="st3" d="M1879.27,1805.23c-12.81-0.16-25.79-0.4-39-0.72l-9.99-14.1l-22.89-32.48l17.17-4.27l23.69-5.8l22.48,41.5
					L1879.27,1805.23z"/>
				<path class="st10" d="M1665.64,873.25c-0.08-0.24-0.16-0.4-0.16-0.56c0-0.08,0-0.16-0.08-0.24c-1.05-3.63-2.26-7.25-3.46-10.8
					v-0.73c-3.79-10.8-8.14-20.55-12.73-29.58v-0.08c-2.74-5.24-5.48-10.15-8.22-14.43c-0.4-0.64-0.81-1.29-1.21-1.85
					c-0.16-0.24-0.24-0.4-0.48-0.64c-0.16-0.32-0.4-0.64-0.65-0.97c-2.9-4.27-5.8-7.9-8.62-10.64c-3.14-3.06-6.13-5.16-8.95-6.04
					c-10.32-3.38-21.44-1.69-29.09,0.32c1.53-2.5,5.32-4.03,5.32-4.03c-4.92,0.24-14.67,7.17-14.67,7.17
					c-23.29-3.95-38.12,3.87-47.14,17.08c-4.67,6.61-7.82,14.43-9.83,22.89v0.08c-1.37,5.32-2.26,10.8-2.9,16.36v0.08
					c-2.34,22.4,0.72,44.97,3.22,54.23c5.96,22.56-16.36,34.81-47.47,59.79c-59.31,47.71-55.85,94.85-55.85,94.85
					c0.56,0.24,1.13,0.4,1.77,0.72c2.18-6.2,6.85-18.05,12.25-20.79c-0.08,0.56-3.87,15.8-4.67,24.18
					c21.27,10.31,60.84,33.68,90.58,51.57c1.85,1.05,3.62,2.18,5.4,3.22c-1.05-4.59-2.18-11.04-1.21-14.83l7.01,18.29
					c6.53,4.03,12.33,7.49,16.84,10.31c6.53,4.03,10.48,6.45,10.48,6.45c-0.72-2.34-0.24-6.29,1.21-11.52v-0.08
					c1.13-3.87,2.82-8.46,4.92-13.54c6.93-17,18.94-39.97,32.72-63.1c0.97-1.61,2.01-3.22,2.98-4.83
					c13.94-23.05,29.49-45.77,43.35-62.7c4.59-5.56,8.95-10.56,13.06-14.59c0.16-0.16,0.32-0.32,0.48-0.48
					c1.69-4.11,2.98-8.78,3.79-13.62c2.66-14.42,2.1-29.98,1.85-34.41c1.85,15.63,1.69,26.67,0.72,34.49
					c-0.32,3.14-0.89,5.8-1.45,7.98c1.77-2.42,3.22-5,4.43-7.9C1678.69,938.77,1674.98,904.68,1665.64,873.25z"/>
				<path class="st3" d="M1649.55,981.45c0.23,0.1-21.88,11.58-38.51,7.03c-15.64-4.27-25.87-24.55-25.65-24.6
					c6.62-1.32,8.53-10.42,8.39-49.54l3,0.59l50.36,9.97c0,0-1.15,15.85-1.18,30.78C1645.92,968.23,1646.68,980.11,1649.55,981.45z"
					/>
				<path class="st0" d="M1568.77,824c0,0,19.13-30.83,54.66-12.4C1623.43,811.6,1605.01,812.11,1568.77,824z"/>
				<path class="st11" d="M1647.13,924.91c0,0-1.15,15.85-1.18,30.78c-28.18-0.79-43.08-26.5-49.18-40.75L1647.13,924.91z"/>
				<path class="st10" d="M1586.41,916.71c0,0-19.09-19.96-26.5-38.81c-5.29-13.46-8.62-66.66,44.9-69.69c0,0,15.41-1.56,31.54,5.17
					c12.83,5.35,32.45,18.53,23.33,67.37l-1.66,16.21L1586.41,916.71z"/>
				<path class="st12" d="M1874.58,1788.69c0,0-13.38,2.31-24.37,3.15c-2.44,0.19-4.76,0.29-6.79,0.29
					c-5.29,0-14.82-1.99-21.22-3.48l-0.48-0.11c-2.81-0.67-4.96-1.21-5.75-1.42l-0.34-0.09c0,0-66.75-74.31-104.18-193.42
					c-0.87-2.78-1.8-5.58-2.77-8.41c-20.5-59.75-62.97-134.73-85.35-202.61c-3.56-10.8-6.76-20.99-9.63-30.61
					c-0.93-3.08-1.82-6.11-2.67-9.09c-16.5-57.32-21.27-94.94-25.67-135.15l134.57,34.24
					C1719.95,1241.99,1776.45,1486.93,1874.58,1788.69z"/>
				<path class="st3" d="M1655.94,932.88c0,0-65.14,14.25-73.39-26.45c-8.25-40.7-22.22-66.28,19.03-77.1
					c41.24-10.82,52.5,3.07,58.55,15.98C1666.19,858.23,1672.67,928.12,1655.94,932.88z"/>
				<path class="st10" d="M1631.14,822.33c0,0-8.27,51.37-34.31,63.97c-26.04,12.6-39.44,7.64-39.44,7.64s17.69-20.98,16.17-51.07
					C1573.58,842.87,1613.06,802.32,1631.14,822.33z"/>
				<path class="st10" d="M1627.49,827.1c0,0,15.51,7.97,20.86,17.68c5.35,9.71,11.12,30.76,17.19,28.78c0,0,6.94-35.18-11.92-50.49
					C1633.63,806.83,1627.49,827.1,1627.49,827.1z"/>
				<path class="st13" d="M1850.21,1791.84c-2.44,0.19-4.76,0.29-6.79,0.29c-5.29,0-14.82-1.99-21.22-3.48l-0.48-0.11l-5.75-1.42
					l-0.34-0.09c0,0-66.75-74.31-104.18-193.42c-0.87-2.78-1.8-5.58-2.77-8.41c-20.5-59.75-62.97-134.73-85.35-202.61
					c-3.56-10.8-6.76-20.99-9.63-30.61c-0.93-3.08-1.82-6.11-2.67-9.09l23.79-18.07c0,0,71.46,115.71,93.58,224.6
					C1746.76,1639.7,1825.7,1756.72,1850.21,1791.84z"/>
				<path class="st12" d="M1637.33,1559.59c0.4,52.95-2.28,174.69-9.17,225.11c0,0-6.54,5.79-22.76,5.85
					c-16.61,0.07-24.04-6.06-24.04-6.06c-17.3-87.64-29.61-160.14-38.57-222.63c-7.35-51.27-13.89-95.24-18.91-133.08
					c-4.45-33.53-7.72-62.27-9.29-87.05c-0.21-3.37-0.39-6.65-0.54-9.87c-0.2-4.25-0.35-8.37-0.42-12.37
					c-0.08-4.03-0.1-7.95-0.06-11.75l0.58-0.05l33.43-3.26l105.64-10.3C1651.45,1386.91,1637.1,1528.81,1637.33,1559.59z"/>
				<path class="st13" d="M1605.4,1790.55c-14.13,0.82-24.04-6.06-24.04-6.06c-17.3-87.64-29.61-160.14-38.57-222.63
					c-7.35-51.27-13.89-95.24-18.91-133.08c-4.45-33.53-7.72-62.27-9.29-87.05c-0.19-12.21-0.32-23.91-0.46-34.04
					c-0.15-10.28-0.32-18.98-0.6-25.04l34.03,21.78l35.81,22.9c0,0-50.79,46.21-38.31,133.56
					C1557.54,1548.24,1588.03,1778.18,1605.4,1790.55z"/>
				<path class="st14" d="M1643.9,958.96c0,0,43.47-5.37,61.69,12.76c22.33,22.21,64.25,149.58,62.59,164.11
					c-0.64,5.55-22.67,2.97-30.22-4.95C1700.3,1091.39,1657.13,988.5,1643.9,958.96z"/>
				<path class="st14" d="M1738.53,1317.83c-40.52,10.53-229.63,31.32-231.26-16.04c-0.4-11.55,0-25.51,0.91-40.61
					c2.82-46.79,10.5-104.6,14.18-136.41c1.69-14.58-3.92-79.89,0.38-115.48c0.63-5.27,1.48-9.9,2.61-13.6
					c8.17-26.86,44.87-34.14,63.71-34.78l56.85-1.94c0,0,58.71,65.58,66.88,85.73c8.17,20.15,10.84,89.12,17.19,122.52
					C1736.33,1200.61,1758.24,1312.71,1738.53,1317.83z"/>
				<path class="st12" d="M1626.84,1157.76c0,0-31.61,97.07-118.66,103.42c2.82-46.79,10.5-104.6,14.18-136.41
					c1.69-14.58-3.92-79.89,0.38-115.48c1.13,0.24,2.16,0.87,3.34,1.1C1621.95,1028.89,1635.56,1137.53,1626.84,1157.76z"/>
				<path class="st11" d="M1765.44,1138.22c0,0-57.07,18.71-126.6-11.3c0,0-18.94-1.79-28.34,0.6c0,0,2.02-18.78,11.21-23.89
					c9.19-5.11,48.72,5.94,60.54,4.32C1708.08,1104.39,1753.08,1101.61,1765.44,1138.22z"/>
				<path class="st12" d="M1714.58,1094.51c0,0,5.35-46.38-12.8-74.33c0,0,6.41-2.18,11.01,5.08c4.6,7.26,36.65,76.15,21.39,81.23
					C1718.92,1111.56,1714.58,1094.51,1714.58,1094.51z"/>
				<path class="st11" d="M1631.27,1102.26c-0.82,0-26.95,3.41-31.58,6.68c-4.63,3.27-0.54,14.7,8.17,15.79
					C1616.56,1125.82,1631.27,1102.26,1631.27,1102.26z"/>
				<path class="st3" d="M1559.82,1119.83c0,0,74.44-2.72,141.96-15.79c0,0,12.34,0.11,10.89,10.89
					c-1.45,10.78-117.03,71.12-142.44,59.5L1559.82,1119.83z"/>
				<path class="st3" d="M1701.78,1104.04c0,0,7.9-9.53,12.8-9.53s17.7,6.26,19.6,11.98c1.91,5.72-15.14,1.63-21.51,8.44
					C1706.31,1121.74,1701.78,1104.04,1701.78,1104.04z"/>
				<path class="st14" d="M1589.07,960.9c0,0-62.55,0.15-71.7,22.62c-16.7,41.02,38.34,177.11,52.86,190.91
					c6.25,5.93,35.17-3.42,35.17-42.62C1605.4,1111.48,1603.94,992.71,1589.07,960.9z"/>
			</g>
			<g>
				<path class="st15" d="M1638.94,813.38c-69.27-8.86-115.45,45.79-115.45,45.79c-1.09-4.25-2.57-8.35-4.37-12.31
					c-16.83-37.18-51.2-66.74-51.2-66.74c33,8.76,66.52,7.22,66.52,7.22l-2.19-79.9c0,0,24.88,33.49,53.14,60.82
					c1.7,1.64,34.65-47.44,34.65-47.44c3.81,30.06,11.22,62.2,16.29,82.54C1637.88,809.62,1638.94,813.38,1638.94,813.38z"/>
				<path class="st16" d="M1638.94,813.38c-69.27-8.86-115.45,45.79-115.45,45.79c-1.09-4.25-2.57-8.35-4.37-12.31
					c7.37-8.35,25.25-25.02,54.33-36.21c25.09-9.67,48.9-9.03,62.87-7.28C1637.88,809.62,1638.94,813.38,1638.94,813.38z"/>
				<path class="st15" d="M1526.9,706.41c0-3.04,2.46-5.5,5.5-5.5c3.04,0,5.5,2.46,5.5,5.5c0,3.04-2.46,5.5-5.5,5.5
					C1529.36,711.91,1526.9,709.45,1526.9,706.41z"/>
				<circle class="st15" cx="1469.1" cy="780.73" r="5.5"/>
				<path class="st15" d="M1614.55,721.43c0-3.04,2.46-5.5,5.5-5.5c3.04,0,5.5,2.46,5.5,5.5c0,3.04-2.46,5.5-5.5,5.5
					C1617.01,726.93,1614.55,724.47,1614.55,721.43z"/>
				<path class="st17" d="M1547.29,752.49c0,0-3.52,28.65,1.39,28.24c4.91-0.41,20.03-5.71,20.09-9.02
					C1568.83,768.39,1547.9,746.52,1547.29,752.49z"/>
				<path class="st17" d="M1497.5,796.86c0,0,16.42,23.74,19.82,20.17c3.39-3.57,11.16-17.58,9-20.1
					C1524.16,794.42,1493.99,792,1497.5,796.86z"/>
				<path class="st17" d="M1613.24,747.61c0,0-18.73,21.96-14.41,24.32c4.32,2.37,19.86,6.28,21.73,3.55
					C1622.44,772.75,1617.04,742.97,1613.24,747.61z"/>
			</g>
		</g>
		<g>
			<path class="st5" d="M2486.96,1079.76c-14.69-35.89-31.46-32.22-44.83-38.52c-3.33-1.57-22.2-16.17-22.2-16.17l-20.4,16.63
				l21.23,17.44c0.14,3.18,1.14,6.16,2.8,8.85c-0.01,0-0.03-0.01-0.03-0.01s10.92,18.63,20.24,24.7c9.32,6.07,12.53,9,11.09-0.73
				c-0.53-3.56-1.64-7.06-2.92-10.08c11.98,2.61,21.64,8.38,30.56,9.69C2492.7,1093.07,2486.96,1079.76,2486.96,1079.76z"/>
			<path class="st3" d="M2251.79,781.56c-45.11,14.23-104.06-20.44-104.06-20.44s6.19-9.63,11.77-28.18
				c2.42-8.03,4.72-17.74,6.34-29.05c1.77-12.32,2.74-26.55,2.2-42.62l58.57,47.19c0,0-0.16,17.97-5.29,48.27
				C2240.69,767.37,2251.79,781.56,2251.79,781.56z"/>
			<path class="st5" d="M2226.62,708.46c-12.58,19.16-57.08,23.69-67.12,24.48c2.42-8.03,4.72-17.74,6.34-29.05L2226.62,708.46z"/>
			<g>
				<path class="st6" d="M1986.93,1805.31c-19.91,0.32-40.21,0.4-61.08,0.32c4.43-11.52,16.28-22.48,16.28-22.48l3.63-4.67
					l3.79-4.84l35.86,8.46c0,0,0.89,8.54,1.37,19.42C1986.85,1802.73,1986.93,1804.02,1986.93,1805.31z"/>
				<path class="st18" d="M2309.76,1193.9c-1.22,14.98-12.54,158.12-13.94,175.92c-10.23,130.47-22.48,290.67-23.69,321.05
					c-1.21,30.06-4.51,70.35-7.09,99.44c-23.85,2.5-48.83,4.67-74.86,6.61c-11.36-46.18-28.12-124.26-34.57-205.17
					c-0.16-2.1-0.32-4.19-0.48-6.29c-1.61-22.4-3.47-49.08-5.24-77.85c-2.1-33.55-13.17-212.53-14.26-239.18
					c-3.54-62.69-4.75-85.66-4.75-85.66l98.64,6.13h0.08L2309.76,1193.9z"/>
				<path class="st19" d="M2309.77,1193.88c0,0-6.4,79.9-13.93,175.94l-140.28,221.96c-0.16-2.09-0.32-4.19-0.47-6.29
					c-9.49-129.66-24.24-402.68-24.24-402.68L2309.77,1193.88z"/>
				<path class="st18" d="M2280.52,1203.37c0,0-115.42,289.35-191.32,425.33c-75.9,135.98-99.61,173.93-99.61,173.93
					s-43.48-17.39-47.43-29.25c0,0,29.02-262.52,79.85-326.51c28.72-36.16,62.46-144.68,64.04-182.62
					c1.58-37.95,10.28-113.05,10.28-113.05L2280.52,1203.37z"/>
			</g>
			<path class="st3" d="M2157.82,717.15c0,0,73.85,15.81,82.99-30.33c9.14-46.14,24.83-75.18-21.94-87.22
				c-46.76-12.05-59.44,3.74-66.24,18.4C2145.84,632.65,2138.85,711.84,2157.82,717.15z"/>
			<path class="st9" d="M2429.98,1050.53c6.35-12.78,9.33-27.71,9.33-27.71s-112.77-74.23-122.65-82.51
				c-9.89-8.28-112.35-159.1-112.35-159.1l-131.83,14.7c0,0,171.8,179.95,197.26,200.43c42.08,33.85,147.23,70.57,147.23,70.57
				S2424.99,1060.56,2429.98,1050.53z"/>
			<path class="st8" d="M2314.74,1200.54c-1.36,1.13-2.93,1.8-4.73,1.8c-16.94-0.23-66.34,9.18-108.13,4.89
				c-35.23-3.39-66.42-13.83-99.91-28.83c-4.45-1.99-14.69-7.46-14.46-12.43c0.15-5.44,0.7-13.33,1.37-23.27
				c0.66-9.65,1.46-21.23,2.18-34.41c0,0,0-0.01,0.01-0.01c1.85-34.05,3.18-78.74,0.28-128.19c-0.73-12.77-1.1-25.44-1.14-37.91
				c-0.05-14.2-1.62-28.26-3.9-41.95c-8.49-51.57-26.65-97.94-9.55-127.56c8.08-13.96,62.03-25.24,75.62-26.71
				c3.87-0.43,15.53,1.05,33.38,9.85c16.5,8.13,32.99,9.03,48.56,5.87l15.59,13.77c18.97,17.62,39.75,41.56,48.79,77.92
				c7.69,30.94,12.19,86.74,14.67,144.56c1.13,26.2,2.04,52.63,2.27,77.71v0.9c0.22,2.49,0.22,5.2,0.22,7.69
				C2316.79,1148.58,2315.87,1199.63,2314.74,1200.54z"/>
			<path class="st6" d="M2226.46,712.88c0,0-4.32-25.44,2.41-31.88c6.72-6.44,4.45-30.16-4.43-27.87
				c-8.88,2.29-15.8-14.9-17.66-29.83c-1.86-14.93-54.26-5.21-67.32-14.59c-13.06-9.38-14.39-24.28-14.39-24.28
				s24.59-1.65,36.5-14.59c11.91-12.94,65.16-9.71,80.82,1.81c0,0,31.62,15.19,31.56,75.8
				C2273.9,690.11,2226.46,712.88,2226.46,712.88z"/>
			<path class="st9" d="M2091.08,1108.27c1.85-34.05,3.18-78.74,0.28-128.19c-0.73-12.77-1.1-25.44-1.14-37.91
				c-0.05-14.2-1.62-28.26-3.9-41.95c0.12-0.18,0.24-0.36,0.37-0.54c14.55-21.03,47.79-12.18,50.48,13.25
				C2141.83,956.87,2140.38,1034.39,2091.08,1108.27z"/>
			<g>
				<path class="st5" d="M2051.16,1129.73L2051.16,1129.73l-5.6-12.27l-24.38,12.33l7.44,20.96c3.53,10.19,6,17.58,21.32,26.79
					c15.32,9.2,14.95,19.04,20.48,21.24c8,3.18,11.38-12.47,11.38-12.47c4.62-19.07-0.89-31.51-8.25-39.42
					c3.64,1.21,6.63,1.94,7.64,1.45c2.59-1.26-1.28-5.77-10.06-10.45C2062.34,1133.19,2051.16,1129.73,2051.16,1129.73z"/>
				<path class="st8" d="M2040.22,1140.1c21.22-7.89,16.37-16.98,16.37-16.98s-40.76-121.83-35.4-133.57
					c5.35-11.73,109.67-112.71,109.67-112.71l-54.07-104.18c0,0-118.37,155.15-131.35,185.15
					c-21.44,49.57,76.24,184.97,76.24,184.97S2029.71,1144.01,2040.22,1140.1z"/>
			</g>
		</g>
		<g>
			<polygon class="st15" points="1211.36,997.16 1211.36,997.16 1271.16,825.22 1308.87,872.74 1371.57,752.21 1371.57,752.21 
				1311.55,934.77 1271.66,885.85 			"/>
		</g>
		<g>
			<g>
				<path class="st3" d="M2530.27,1446.57c-21.31,11.22-42.1,11.92-60.13,8.09c-16.49-3.47-30.65-10.75-40.74-17.19
					c-10.35-6.62-16.44-12.38-16.44-12.38s0.72-1.04,1.93-3.09c6.29-10.77,25.38-49.48,16.89-111.67
					c-0.11-0.81,6.05,0.34,15.35,2.54c27.7,6.56,83.37,22.35,85.83,23.05c0.06,0,0.09,0,0.09,0s0.68,13.08,2.98,36.53
					c0.19,2.07,0.4,4.23,0.62,6.46c0.29,2.75,0.57,5.67,0.91,8.66C2540.17,1411.96,2530.27,1446.57,2530.27,1446.57z"/>
				<path class="st5" d="M2536.05,1372.45c-41.34,9.48-103.05-51.56-103.05-51.56c4.51-3.35,9.25-6.01,14.14-8.02
					c27.7,6.56,83.37,22.35,85.83,23.05c0.06,0,0.09,0,0.09,0S2533.76,1349.01,2536.05,1372.45z"/>
				<path class="st3" d="M2592.21,1107.69c0,0-16.22-24.48-32.16-25.92c-15.94-1.44-46.08,1.89-46.57,8.54
					c-0.49,6.64,43.1,20.73,46.35,27.62c5.27,11.16,23.72,11.29,23.72,11.29L2592.21,1107.69z"/>
				<path class="st3" d="M2550.1,1332.62c0,0-17,6.1-38.67,9.02c-31.7,4.28-73.37,1.76-86.47-36.59
					c-22.05-64.55-50.22-103.25,14.67-129.61c34.74-14.11,56.97-14.86,72.06-9.47c13.12,4.65,20.85,13.93,26.7,23.12
					C2551,1208.84,2576.35,1321.32,2550.1,1332.62z"/>
				<path class="st20" d="M2589.48,1194.17c-37.58,27.01-89.56,0.46-105.72,7.64c-16.14,7.17-19.04,34.24-19.33,42.84
					c-0.29,8.61-1.42,15.87-23.34,10.72c-3.59-0.84-6.18-0.59-7.96,0.48c-9.09,5.39,2.53,31.54,6.03,37.2c0,0,5.04,18.73-6.15,27.85
					c-1.35,1.09-23.34,10.7-76.33-70.38c-8.33-12.73-16.28-41.4-3.42-69.01c12.84-27.61,66.54-54.29,112.08-68.43
					c17.07-5.3,29.72-5.11,39.61-1.48c16.51,6.03,25.31,21.63,34.04,37.31C2553.66,1175.23,2589.48,1194.17,2589.48,1194.17z"/>
				<path class="st14" d="M2664.46,1533.47c-155.19,144.95-127.93-131.13-127.93-131.13s59.1-26.24,77.73-26.23
					c18.62,0.01,32.26-51.87,91.32-138.25c0.02-0.02,0.02-0.02,0.02-0.02l-0.04-0.02l-124.15-106.28c0,0,5.75-31.61,12.61-30.04
					c9.61,2.19,27.91,7.94,49.82,16.19c56.77,21.36,137.7,59.45,154.06,95.98C2797.91,1213.67,2800.99,1405.95,2664.46,1533.47z"/>
				<path class="st21" d="M2532.33,1125.36l-0.23-0.3C2532.25,1125.2,2532.32,1125.29,2532.33,1125.36z"/>
				<path class="st14" d="M2314.59,1784.18c119.36-15.53,245.74-42.82,344.93-90.26c-0.34-4.82-0.63-9.2-0.91-13.2
					c0,0,2.66-76.23,1.61-143.36c-0.72-48.19-3.3-91.63-10.07-98.8c-19.58-20.71-100.89-34.25-112.26-36.02h-0.08
					c-0.81-0.16-1.29-0.24-1.29-0.24c-46.74,26.27-109.68-9.19-109.68-9.19c-1.45,0.24-2.82,0.56-4.19,0.89
					c-4.59-0.97-63.58-13.46-81.15-9.83c-18.21,3.79-42.07-44.24-117.49-116.77l99.93-129.34c0-0.08-0.08-0.08-0.08-0.16
					c-0.08-0.32-0.4-1.05-0.89-2.1c0.08,0,0.16,0,0.16-0.08c4.67-1.29,16.84-5.72,19.18-15.39c1.77-7.41,41.58-30.06,39.73-36.43
					c-1.77-6.45-31.99-3.55-47.3,1.13c-10.31,3.06-18.61,16.44-22.97,24.82c-0.65,1.29-1.13,2.34-1.61,3.3
					c-0.48-0.48-0.97-0.89-1.45-1.21v-0.08c-1.21-0.81-2.25-1.05-3.22-0.64c-16.04,7.41-57.3,31.67-95.98,60.84
					c-38.68,29.25-74.86,63.42-80.83,90.5c0.08,0.64,2.1,10.88,7.09,27.48c41.91,146.1,138.69,237.73,159.4,251.27
					c3.06,2.01,5.72,4.27,7.98,6.77c0,0.08,0,0.08,0.08,0.08c13.86,15.23,13.62,36.99,13.62,36.99
					C2314.52,1641.95,2314.83,1716.02,2314.59,1784.18z"/>
				<path class="st3" d="M2342.28,1120.36c-2.31,9.67-14.5,14.05-19.13,15.39c-4.25-11.94-9.42-19.3-14.43-23.81
					c0.46,0.32,0.93,0.74,1.42,1.23c0.45-0.95,1-2.07,1.63-3.28c4.32-8.4,12.62-21.78,22.94-24.89c15.32-4.66,45.51-7.54,47.33-1.12
					C2383.87,1090.27,2344.08,1112.94,2342.28,1120.36z"/>
				<path class="st12" d="M2705.59,1237.83c0,0-1.01,198.28-91.34,138.27c18.62,0.01,32.26-51.87,91.32-138.25
					C2705.59,1237.83,2705.59,1237.83,2705.59,1237.83z"/>
				<path class="st12" d="M2422.97,1394.06c0,0,69.64,71.83,119.42,57.11c0,0,6.63-9.7-15.79-12.81
					C2504.18,1435.26,2479.98,1436.53,2422.97,1394.06z"/>
			</g>
			<path class="st12" d="M2314.59,1784.18c30.27-3.94,61-8.63,91.62-14.22c-0.42-34.08-2.68-64.21-7.4-84.32
				c-14.59-61.41-73.9-118.3-95.58-137.48c13.86,15.23,13.62,36.99,13.62,36.99C2314.52,1641.95,2314.83,1716.02,2314.59,1784.18z"
				/>
			<path class="st0" d="M2553.73,1292.21c-1.09-3.98-0.81-8.1-9.23-5.25l-20.87,5.74c-8.53,1.9-6.34,5.25-5.25,9.23
				s5.25,6.34,9.23,5.25l20.87-5.74C2552.46,1300.34,2554.82,1296.19,2553.73,1292.21z"/>
		</g>
		<g>
			<path class="st11" d="M1720.7,1536.46c0,0,3.45,40.59,26.52,39.92c23.06-0.67,42.77-32.14,42.77-32.14L1720.7,1536.46z"/>
			<path class="st4" d="M1875.12,1056.72c0,0,73.11-9.54,96.27,66.85c17.69,58.32,56.14,89.17,55.04,150.82s-13.16,61.65,0.02,94.67
				c13.19,33.03-18.74,66.05-51.76,66.05c-33.03,0-197.47-52.38-203.32-83.43c-5.85-31.06,22.26-88.22,12.35-111.38
				c-9.91-23.16,14-58.45,8.22-107.92C1788.49,1102.81,1813.92,1050.36,1875.12,1056.72z"/>
			<path class="st3" d="M2009.61,1687.2c-43.73-139.81,4.2-170.2-0.37-240.15c-4.55-69.96-58.72-145.17-58.72-145.17
				s-2.74-0.98-7.41-1.41c-3.63-1.91-4.62-16.42-4.58-32.46c0.04-19.27,1.53-39.71,1.53-39.71l-17.7-3.5l-47.26-9.35l-3.87-0.77
				c0.04,10.73-0.59,20.59-1.72,29.47c-2.02,16.08-5.59,29-9.5,38.13c-3.99,9.31-8.33,14.72-11.72,15.62
				c-9.09,1.87-30.4-1.26-40.67,13.23c-24.6,34.68-36.06,111.17-27.06,171.72c1.62,10.91,4.22,21.7,8.02,32.18
				c16.11,44.53,24.42,62.68,24.02,79.52c-0.5,21.27-14.93,40.4-45.08,108.04C1750.84,1739.94,2054.26,1829.98,2009.61,1687.2z"/>
			<path class="st6" d="M2017.72,1771.46c-0.24,9.83-0.73,20.95-1.53,33.36c-9.59,0.24-19.42,0.4-29.25,0.48
				c-19.91,0.32-40.21,0.4-61.08,0.32h-2.98c-14.26-0.08-28.85-0.16-43.6-0.4c-9.83-0.16-19.74-0.32-29.82-0.56
				c0.16-10.64,0.32-20.95,0.4-31.03c0.16-7.33,0.24-14.42,0.24-21.35c0.08-4.19,0.16-8.22,0.16-12.25l7.41-0.89l82.6-9.67
				l73.33-8.62l3.63-0.4C2017.23,1720.45,2018.68,1738.66,2017.72,1771.46z"/>
			<path class="st18" d="M1941,1726.01c0,0-0.24,1.21-0.73,3.46c-1.21,5.72-3.95,18.21-7.9,35.62c-1.61,6.77-3.3,14.26-5.24,22.48
				c-1.29,5.72-2.74,11.77-4.27,18.05c-14.26-0.08-28.85-0.16-43.6-0.4c-9.83-0.16-19.74-0.32-29.82-0.56
				c-3.06,0-6.13-0.08-9.19-0.16c-32.64-0.73-66.32-1.77-101.13-3.22c2.82-12.81,5.8-25.14,9.19-36.75
				c1.61-5.32,3.22-10.48,4.92-15.47c4.67-13.86,9.91-26.43,15.71-37.15v-0.08c4.27-7.82,8.87-14.67,13.78-20.47l31.11,6.77
				L1941,1726.01z"/>
			<path class="st22" d="M2021.81,1320.53c-12.75-11.15-51.67-16.47-68.5-18.29c-0.91-0.12-1.83-0.24-2.78-0.37
				c0,0-5.22-0.59-5.1-0.4c2.36,4.23,34.03,52.17,31.56,64.49c-2.59,12.9-114.86,1.29-122.61-5.81c-7.74-7.09-20-61.45-20-61.45
				s-39.76,4.35-59.2,18.49c0,0,0.07,0.09,0.21,0.25c-2.35,1.68-4.11,3.47-5.11,5.38c-20.75,39.5-41.47,139.2-56.04,210.32
				c35.32,19.46,66.18,13.67,75.76,11.1c-12.52,81.9-40.91,169.84-42.77,207.16c-0.28,5.45,0.01,9.81,1,12.93
				c3.44,10.83,15.27,15.77,43.85,12.81c17.47-1.82,25.26-31.1,28.73-56.07c10.49,35.74,25.18,55.79,44.17,60
				c27.71,6.16,167.49,23.16,176.64-43.29c7.29-52.94-6.51-135.44-15.3-203.41c23.62,0.01,32.85-14.02,33.85-18.22
				C2061.27,1511.5,2046.45,1342.07,2021.81,1320.53z"/>
			<path class="st21" d="M1747.22,1751.4c19.2-6.41,43.83-23.47,73.42-61.7c78.33-101.24,6.65-220.21-2.96-222.42
				c-9.61-2.22-27.7,76.97-27.7,76.97C1777.47,1626.14,1749.08,1714.08,1747.22,1751.4z"/>
			<path class="st11" d="M1860,1282.26c30.8-0.83,80.05-53.97,80.05-53.97c-5.08-2.62-11.13-3.68-17.7-3.5
				c-16.96,0.4-37.28,8.94-52.85,19.35C1867.49,1260.22,1863.92,1273.13,1860,1282.26z"/>
			<path class="st3" d="M1853.57,1257.1c0,0,93.09,2.21,92.38-51.45c-0.71-53.66,10.83-89.52-48.63-93.19
				c-59.46-3.68-70.74,16.69-75.21,34.55C1817.64,1164.87,1829.34,1255.14,1853.57,1257.1z"/>
			<path class="st4" d="M1843.03,1091.38c0,0,7.17,38.14,63.24,71.82c39.38,23.65,19.31,106.03,25.47,128
				c6.16,21.96,76.8,7.97,82.36,20.9c0,0-6.55-51.08-27.47-87.33c-20.92-36.25-2.2-70.38-20.92-104.5
				C1947,1086.14,1849.83,1080.37,1843.03,1091.38z"/>
			<path class="st11" d="M1994.79,1482.83c-5.4,0-38.03,0-38.03,0c-19.62,6.84-146.99,32.85-208.02,48.33
				c-23.21,5.88-28.18,38.04-6.92,49.06c11.84,6.14,26.74,8.89,41.49,8.01c34.22-2.05,179.29-85.7,179.29-85.7h66.42
				C2029.02,1502.53,2014.1,1482.82,1994.79,1482.83z"/>
			<path class="st3" d="M2037.58,1502.9c-62.91-2.72-166.41-10.33-187.02-13.03c0,0-32.69,1.65-37.35,3.65s-16.26,26.18-16.26,26.18
				l36.65-8.25c0,0,147.83,59.32,181.75,54.36c14.62-2.14,28.65-7.87,38.99-16.29C2072.9,1534.4,2061.5,1503.94,2037.58,1502.9z"/>
		</g>
		<g>
			<path class="st17" d="M1818.6,988.89h-33.13c-31.55,0-57.37-25.82-57.37-57.37l0,0c0-31.55,25.82-57.37,57.37-57.37h33.13
				c31.55,0,57.37,25.82,57.37,57.37l0,0C1875.97,963.07,1850.15,988.89,1818.6,988.89z"/>
			<path class="st12" d="M1836.22,995.02c-5.12,0-9.28,4.15-9.28,9.27c0,5.12,4.15,9.28,9.28,9.28s9.28-4.15,9.28-9.28
				C1845.5,999.17,1841.35,995.02,1836.22,995.02z"/>
			<path class="st12" d="M1860.16,1020.47c-2.56,0-4.64,2.08-4.64,4.64c0,2.56,2.08,4.64,4.64,4.64c2.56,0,4.64-2.08,4.64-4.64
				C1864.8,1022.55,1862.72,1020.47,1860.16,1020.47z"/>
			<g>
				<path class="st12" d="M1755.24,944.26c1.4,0,2.57,0.47,3.49,1.41c0.93,0.95,1.39,2.12,1.39,3.51c0,1.36-0.47,2.52-1.42,3.47
					c-0.95,0.97-2.1,1.45-3.46,1.45c-1.31,0-2.47-0.49-3.46-1.49c-1-0.98-1.5-2.13-1.5-3.44c0-1.35,0.48-2.51,1.46-3.47
					C1752.71,944.75,1753.87,944.26,1755.24,944.26z"/>
				<path class="st12" d="M1824.6,926.6c0,5.66-1.06,10.21-3.19,13.65c-2.58,4.16-6.55,6.25-11.89,6.25c-1.36,0-2.71-0.36-4.07-1.09
					c-1.5-0.86-2.38-1.87-2.65-3.06c-0.04,0.05-0.11,0.1-0.2,0.14c-0.86,0.68-2.26,1.63-4.22,2.85c-1.68,0.77-3.62,1.16-5.84,1.16
					c-3.21,0-5.86-1.31-7.94-3.94c-1.9-2.44-2.85-5.32-2.85-8.62c0-3.53,0.77-6.68,2.31-9.44c1.63-2.98,4.01-5.12,7.13-6.38
					c1.77-0.73,3.53-1.09,5.3-1.09c3.17,0,5.69,1.22,7.54,3.66c0.22-0.6,0.59-1.37,1.08-2.29c0.5-0.92,1.24-1.37,2.25-1.37
					c2.04,0,3.05,0.82,3.05,2.45v0.82c0,0.32-0.02,0.61-0.06,0.89l-2.45,14c-0.14,0.78-0.21,1.64-0.21,2.6
					c0,2.45,0.99,3.68,2.99,3.68c5.48,0,8.22-4.82,8.22-14.46c0-6.02-2.31-10.66-6.93-13.92c-4.07-2.89-9.24-4.35-15.48-4.35
					c-6.97,0-12.68,2.22-17.14,6.65c-4.46,4.44-6.69,10.14-6.69,17.12c0,7.29,1.99,12.81,5.97,16.57c3.84,3.62,9.46,5.43,16.84,5.43
					c3.53,0,6.54-0.34,9.04-1.02c2.35-0.63,4.59-1.49,6.72-2.57c1.72-0.86,2.85-1.3,3.4-1.3c1.44,0,2.17,0.79,2.17,2.38
					c0,0.77-0.67,1.61-2.04,2.51c-2.17,1.45-5.25,2.7-9.23,3.74c-3.76,0.99-7.07,1.49-9.92,1.49c-8.83,0-15.78-2.32-20.85-6.99
					c-5.2-4.79-7.81-11.59-7.81-20.37c0-8.19,2.88-15.05,8.63-20.57c5.75-5.52,12.74-8.29,20.98-8.29c7.84,0,14.31,1.83,19.42,5.5
					C1821.73,913.18,1824.6,919.04,1824.6,926.6z M1802.47,929.52c0-4.67-1.97-6.99-5.91-6.99c-2.76,0-4.86,1.19-6.32,3.59
					c-1.27,2-1.9,4.46-1.9,7.41c0,5.02,1.86,7.54,5.57,7.54c2.71,0,4.88-1.29,6.52-3.87
					C1801.78,934.97,1802.47,932.41,1802.47,929.52z"/>
				<path class="st12" d="M1845.78,949.83c0,1.31-0.48,2.45-1.43,3.4c-0.95,0.95-2.08,1.43-3.4,1.43c-1.31,0-2.44-0.48-3.4-1.43
					c-0.95-0.95-1.43-2.08-1.43-3.4c0-1.31,0.48-2.44,1.43-3.4c0.95-0.95,2.08-1.43,3.4-1.43c1.31,0,2.45,0.48,3.4,1.43
					C1845.3,947.38,1845.78,948.51,1845.78,949.83z M1845.16,934.13c0,3.81-1.41,5.71-4.21,5.71c-2.85,0-4.29-1.9-4.29-5.71v-25.33
					c0-3.67,1.41-5.5,4.22-5.5c2.85,0,4.28,1.83,4.28,5.5V934.13z"/>
			</g>
		</g>
		<g>
			<path class="st23" d="M1966.36,708.78h-59.08c-41.51,0-75.47-33.96-75.47-75.47v-12.03c0-41.51,33.96-75.47,75.47-75.47h59.08
				c41.51,0,75.47,33.96,75.47,75.47v12.03C2041.82,674.82,2007.86,708.78,1966.36,708.78z"/>
			<path class="st23" d="M2082.35,605.24c-3.11-6.03-10.52-8.4-16.54-5.29c-6.03,3.11-8.4,10.51-5.29,16.54
				c3.11,6.03,10.51,8.4,16.54,5.29C2083.09,618.67,2085.46,611.27,2082.35,605.24z"/>
			<path class="st23" d="M2109.08,620.41c-1.51-2.94-5.13-4.1-8.07-2.58c-2.94,1.52-4.09,5.13-2.58,8.07
				c1.52,2.94,5.13,4.1,8.07,2.58C2109.44,626.96,2110.6,623.35,2109.08,620.41z"/>
			<g>
				<path class="st8" d="M1953.12,642.51c1.67,0,3.06,0.56,4.17,1.68c1.11,1.13,1.66,2.53,1.66,4.19c0,1.62-0.57,3-1.7,4.15
					c-1.13,1.16-2.51,1.73-4.13,1.73c-1.57,0-2.95-0.59-4.14-1.77c-1.2-1.18-1.78-2.55-1.78-4.11c0-1.61,0.58-2.99,1.74-4.15
					C1950.1,643.09,1951.49,642.51,1953.12,642.51z"/>
				<path class="st8" d="M1939.2,621.42c0,6.76-1.27,12.2-3.81,16.3c-3.08,4.97-7.82,7.46-14.2,7.46c-1.62,0-3.24-0.43-4.86-1.3
					c-1.78-1.02-2.84-2.24-3.17-3.65c-0.05,0.06-0.13,0.11-0.24,0.17c-1.03,0.82-2.7,1.95-5.03,3.4c-2,0.92-4.32,1.38-6.97,1.38
					c-3.84,0-7-1.57-9.48-4.71c-2.27-2.92-3.41-6.36-3.41-10.3c0-4.22,0.92-7.98,2.75-11.28c1.95-3.56,4.79-6.11,8.51-7.61
					c2.12-0.87,4.22-1.3,6.33-1.3c3.79,0,6.79,1.45,9.01,4.37c0.27-0.72,0.7-1.64,1.29-2.73c0.6-1.09,1.48-1.64,2.68-1.64
					c2.43,0,3.64,0.98,3.64,2.93v0.98c0,0.38-0.02,0.73-0.07,1.06l-2.92,16.71c-0.17,0.93-0.25,1.96-0.25,3.11
					c0,2.93,1.19,4.4,3.57,4.4c6.54,0,9.81-5.76,9.81-17.27c0-7.19-2.76-12.73-8.28-16.62c-4.86-3.46-11.03-5.19-18.49-5.19
					c-8.33,0-15.15,2.65-20.47,7.94c-5.32,5.3-7.99,12.11-7.99,20.44c0,8.71,2.37,15.3,7.13,19.79c4.59,4.32,11.3,6.48,20.11,6.48
					c4.22,0,7.81-0.4,10.79-1.22c2.81-0.75,5.48-1.77,8.03-3.07c2.05-1.03,3.41-1.55,4.05-1.55c1.72,0,2.59,0.95,2.59,2.85
					c0,0.92-0.8,1.92-2.44,2.99c-2.59,1.73-6.26,3.22-11.02,4.47c-4.49,1.19-8.44,1.77-11.84,1.77c-10.54,0-18.84-2.77-24.9-8.35
					c-6.21-5.73-9.33-13.84-9.33-24.33c0-9.78,3.44-17.97,10.31-24.57c6.86-6.59,15.21-9.89,25.05-9.89
					c9.36,0,17.09,2.19,23.19,6.56C1935.77,605.4,1939.2,612.4,1939.2,621.42z M1912.77,624.91c0-5.57-2.35-8.35-7.06-8.35
					c-3.3,0-5.81,1.42-7.54,4.29c-1.52,2.38-2.27,5.32-2.27,8.84c0,5.99,2.22,9,6.65,9c3.24,0,5.83-1.54,7.78-4.62
					C1911.95,631.42,1912.77,628.37,1912.77,624.91z"/>
				<path class="st8" d="M1986.9,649.16c0,1.57-0.57,2.92-1.7,4.05c-1.13,1.14-2.49,1.7-4.05,1.7c-1.57,0-2.92-0.57-4.06-1.7
					c-1.13-1.14-1.7-2.49-1.7-4.05c0-1.57,0.57-2.92,1.7-4.05c1.14-1.13,2.49-1.7,4.06-1.7c1.57,0,2.92,0.57,4.05,1.7
					C1986.33,646.24,1986.9,647.59,1986.9,649.16z M1986.17,630.42c0,4.55-1.68,6.82-5.02,6.82c-3.4,0-5.12-2.27-5.12-6.82v-30.24
					c0-4.38,1.68-6.57,5.03-6.57c3.4,0,5.11,2.19,5.11,6.57V630.42z"/>
			</g>
		</g>
	</g>
	<g class="st24">
		<g class="st25">
			<path class="st19" d="M234.14,690.86h50.54v11.5h-64.67V595.72h14.14V690.86z"/>
			<path class="st19" d="M295.01,662c0-7.76,1.53-14.75,4.58-20.95c3.05-6.2,7.3-10.99,12.74-14.36c5.44-3.37,11.66-5.05,18.64-5.05
				c10.79,0,19.52,3.74,26.18,11.21s10,17.41,10,29.81v0.95c0,7.72-1.48,14.64-4.43,20.76c-2.96,6.13-7.18,10.9-12.67,14.32
				c-5.49,3.42-11.8,5.13-18.93,5.13c-10.74,0-19.45-3.74-26.11-11.21c-6.67-7.47-10-17.36-10-29.66V662z M308.63,663.62
				c0,8.79,2.04,15.85,6.12,21.17c4.08,5.32,9.53,7.98,16.37,7.98c6.88,0,12.35-2.7,16.41-8.09c4.05-5.39,6.08-12.95,6.08-22.67
				c0-8.69-2.06-15.73-6.19-21.13c-4.13-5.39-9.61-8.09-16.44-8.09c-6.69,0-12.08,2.66-16.19,7.98
				C310.68,646.09,308.63,653.7,308.63,663.62z"/>
			<path class="st19" d="M422.45,635.27c-2.05-0.34-4.27-0.51-6.66-0.51c-8.89,0-14.92,3.78-18.09,11.35v56.25h-13.55v-79.25h13.18
				l0.22,9.16c4.44-7.08,10.74-10.62,18.9-10.62c2.64,0,4.64,0.34,6.01,1.03V635.27z"/>
			<path class="st19" d="M466.39,703.83c-10.74,0-19.48-3.53-26.22-10.58c-6.74-7.05-10.11-16.49-10.11-28.31v-2.49
				c0-7.86,1.5-14.88,4.5-21.06c3-6.18,7.2-11.01,12.6-14.5c5.39-3.49,11.24-5.24,17.54-5.24c10.3,0,18.31,3.39,24.02,10.18
				c5.71,6.79,8.57,16.5,8.57,29.15v5.64h-53.69c0.19,7.81,2.48,14.12,6.85,18.93c4.37,4.81,9.92,7.21,16.66,7.21
				c4.78,0,8.84-0.98,12.16-2.93c3.32-1.95,6.23-4.54,8.72-7.76l8.28,6.45C489.64,698.72,479.68,703.83,466.39,703.83z
				 M464.71,632.78c-5.47,0-10.06,1.99-13.77,5.97c-3.71,3.98-6.01,9.56-6.88,16.74h39.7v-1.03c-0.39-6.88-2.25-12.22-5.57-16
				C474.87,634.67,470.37,632.78,464.71,632.78z"/>
			<path class="st19" d="M525.72,623.11l0.37,8.79c5.81-6.84,13.65-10.25,23.51-10.25c11.08,0,18.63,4.25,22.63,12.74
				c2.64-3.81,6.07-6.88,10.29-9.23c4.22-2.34,9.22-3.52,14.98-3.52c17.38,0,26.22,9.2,26.51,27.61v53.1h-13.55v-52.29
				c0-5.66-1.29-9.9-3.88-12.71c-2.59-2.81-6.93-4.21-13.04-4.21c-5.03,0-9.2,1.5-12.52,4.5c-3.32,3-5.25,7.04-5.79,12.12v52.59
				h-13.62v-51.93c0-11.52-5.64-17.29-16.92-17.29c-8.89,0-14.97,3.78-18.24,11.35v57.86H512.9v-79.25H525.72z"/>
			<path class="st19" d="M215.61,782.61c0-3.17,1.06-5.79,3.19-7.84c2.12-2.05,5.02-3.08,8.68-3.08c3.61,0,6.49,1.03,8.64,3.08
				c2.15,2.05,3.22,4.66,3.22,7.84c0,3.22-1.09,5.86-3.26,7.91c-2.17,2.05-5.04,3.08-8.61,3.08c-3.56,0-6.43-1.03-8.61-3.08
				C216.7,788.46,215.61,785.83,215.61,782.61z M238.1,882.36h-21.24v-79.25h21.24V882.36z"/>
			<path class="st19" d="M326.87,843.47c0,12.21-2.77,21.99-8.31,29.33c-5.54,7.35-13.03,11.02-22.45,11.02
				c-8.01,0-14.48-2.78-19.41-8.35v37.35h-21.17V803.11h19.63l0.73,7.76c5.13-6.15,11.82-9.23,20.07-9.23
				c9.77,0,17.36,3.61,22.78,10.84c5.42,7.23,8.13,17.19,8.13,29.88V843.47z M305.7,841.93c0-7.37-1.31-13.06-3.92-17.07
				c-2.61-4-6.41-6.01-11.39-6.01c-6.64,0-11.21,2.54-13.7,7.62v32.45c2.59,5.23,7.2,7.84,13.84,7.84
				C300.65,866.76,305.7,858.48,305.7,841.93z"/>
			<path class="st19" d="M382.9,860.46c0-2.59-1.28-4.63-3.85-6.12c-2.56-1.49-6.68-2.82-12.34-3.99
				c-18.85-3.96-28.27-11.96-28.27-24.02c0-7.03,2.92-12.9,8.75-17.62c5.83-4.71,13.46-7.07,22.89-7.07c10.06,0,18.1,2.37,24.13,7.1
				c6.03,4.74,9.05,10.89,9.05,18.46h-21.17c0-3.03-0.98-5.53-2.93-7.51c-1.95-1.98-5.01-2.97-9.16-2.97
				c-3.56,0-6.32,0.81-8.28,2.42c-1.95,1.61-2.93,3.66-2.93,6.15c0,2.34,1.11,4.24,3.33,5.68c2.22,1.44,5.97,2.69,11.24,3.74
				c5.27,1.05,9.72,2.23,13.33,3.55c11.18,4.1,16.77,11.21,16.77,21.31c0,7.23-3.1,13.07-9.3,17.54c-6.2,4.47-14.21,6.7-24.02,6.7
				c-6.64,0-12.54-1.18-17.69-3.55c-5.15-2.37-9.19-5.61-12.12-9.74c-2.93-4.12-4.39-8.58-4.39-13.37h20.07
				c0.19,3.76,1.59,6.64,4.17,8.64c2.59,2,6.05,3,10.4,3c4.05,0,7.12-0.77,9.19-2.31C381.86,864.97,382.9,862.95,382.9,860.46z"/>
			<path class="st19" d="M464.56,874.3c-5.23,6.35-12.45,9.52-21.68,9.52c-8.5,0-14.98-2.44-19.45-7.32
				c-4.47-4.88-6.75-12.04-6.85-21.46v-51.93h21.17v51.26c0,8.26,3.76,12.39,11.28,12.39c7.18,0,12.11-2.49,14.79-7.48v-56.17h21.24
				v79.25h-19.92L464.56,874.3z"/>
			<path class="st19" d="M520.89,803.11l0.66,8.86c5.61-6.88,13.21-10.33,22.78-10.33c10.2,0,17.21,4.03,21.02,12.09
				c5.57-8.06,13.5-12.09,23.8-12.09c8.59,0,14.99,2.5,19.19,7.51c4.2,5.01,6.3,12.54,6.3,22.6v50.61H593.4v-50.54
				c0-4.49-0.88-7.78-2.64-9.85c-1.76-2.07-4.86-3.11-9.3-3.11c-6.35,0-10.74,3.03-13.18,9.08l0.07,54.42h-21.17V831.9
				c0-4.59-0.9-7.91-2.71-9.96c-1.81-2.05-4.88-3.08-9.23-3.08c-6.01,0-10.35,2.49-13.04,7.47v56.03h-21.17v-79.25H520.89z"/>
			<path class="st19" d="M664.95,842.15c0-12.35,2.77-22.19,8.31-29.52c5.54-7.32,13.12-10.99,22.74-10.99
				c7.71,0,14.09,2.88,19.12,8.64v-40.43h21.24v112.5h-19.12l-1.03-8.42c-5.27,6.59-12.06,9.89-20.36,9.89
				c-9.33,0-16.81-3.67-22.45-11.02C667.77,865.46,664.95,855.24,664.95,842.15z M686.12,843.73c0,7.43,1.29,13.13,3.88,17.09
				c2.59,3.96,6.35,5.94,11.28,5.94c6.54,0,11.16-2.76,13.84-8.29v-31.32c-2.64-5.53-7.2-8.29-13.7-8.29
				C691.22,818.86,686.12,827.15,686.12,843.73z"/>
			<path class="st19" d="M749.48,842c0-7.86,1.51-14.87,4.54-21.02c3.03-6.15,7.38-10.91,13.07-14.28
				c5.69-3.37,12.29-5.05,19.81-5.05c10.69,0,19.42,3.27,26.18,9.81c6.76,6.54,10.53,15.43,11.32,26.66l0.15,5.42
				c0,12.16-3.39,21.91-10.18,29.26c-6.79,7.35-15.89,11.02-27.32,11.02c-11.43,0-20.54-3.66-27.36-10.99
				c-6.81-7.32-10.22-17.29-10.22-29.88V842z M770.64,843.51c0,7.53,1.42,13.29,4.25,17.28c2.83,3.99,6.88,5.98,12.16,5.98
				c5.13,0,9.13-1.97,12.01-5.91c2.88-3.94,4.32-10.23,4.32-18.89c0-7.38-1.44-13.11-4.32-17.16c-2.88-4.06-6.93-6.09-12.16-6.09
				c-5.18,0-9.18,2.02-12.01,6.05C772.06,828.8,770.64,835.05,770.64,843.51z"/>
			<path class="st19" d="M859.93,882.36h-21.24v-112.5h21.24V882.36z"/>
			<path class="st19" d="M874.06,842c0-7.86,1.51-14.87,4.54-21.02c3.03-6.15,7.38-10.91,13.07-14.28
				c5.69-3.37,12.29-5.05,19.81-5.05c10.69,0,19.42,3.27,26.18,9.81c6.76,6.54,10.53,15.43,11.32,26.66l0.15,5.42
				c0,12.16-3.39,21.91-10.18,29.26c-6.79,7.35-15.89,11.02-27.32,11.02s-20.54-3.66-27.36-10.99
				c-6.81-7.32-10.22-17.29-10.22-29.88V842z M895.23,843.51c0,7.53,1.42,13.29,4.25,17.28c2.83,3.99,6.88,5.98,12.16,5.98
				c5.13,0,9.13-1.97,12.01-5.91c2.88-3.94,4.32-10.23,4.32-18.89c0-7.38-1.44-13.11-4.32-17.16c-2.88-4.06-6.93-6.09-12.16-6.09
				c-5.18,0-9.18,2.02-12.01,6.05C896.64,828.8,895.23,835.05,895.23,843.51z"/>
			<path class="st19" d="M1006.7,822.96c-2.88-0.39-5.42-0.59-7.62-0.59c-8.01,0-13.26,2.71-15.75,8.13v51.86h-21.17v-79.25h20
				l0.59,9.45c4.25-7.28,10.13-10.91,17.65-10.91c2.34,0,4.54,0.32,6.59,0.95L1006.7,822.96z"/>
		</g>
		<g class="st25">
			<path class="st19" d="M221.94,1060.04h16.17v3.68h-20.7v-34.12h4.52V1060.04z"/>
			<path class="st19" d="M241.42,1050.81c0-2.48,0.49-4.72,1.46-6.7c0.98-1.98,2.34-3.52,4.08-4.59s3.73-1.62,5.96-1.62
				c3.45,0,6.25,1.2,8.38,3.59c2.13,2.39,3.2,5.57,3.2,9.54v0.3c0,2.47-0.47,4.68-1.42,6.64s-2.3,3.49-4.05,4.58
				c-1.76,1.09-3.78,1.64-6.06,1.64c-3.44,0-6.22-1.2-8.36-3.59s-3.2-5.55-3.2-9.49V1050.81z M245.78,1051.32
				c0,2.81,0.65,5.07,1.96,6.77s3.05,2.55,5.24,2.55c2.2,0,3.95-0.86,5.25-2.59c1.3-1.73,1.95-4.14,1.95-7.25
				c0-2.78-0.66-5.04-1.98-6.76c-1.32-1.73-3.07-2.59-5.26-2.59c-2.14,0-3.87,0.85-5.18,2.55S245.78,1048.15,245.78,1051.32z"/>
			<path class="st19" d="M282.2,1042.25c-0.66-0.11-1.37-0.16-2.13-0.16c-2.84,0-4.77,1.21-5.79,3.63v18h-4.34v-25.36h4.22
				l0.07,2.93c1.42-2.27,3.44-3.4,6.05-3.4c0.84,0,1.48,0.11,1.92,0.33V1042.25z"/>
			<path class="st19" d="M296.26,1064.19c-3.44,0-6.23-1.13-8.39-3.39c-2.16-2.26-3.23-5.28-3.23-9.06v-0.8
				c0-2.52,0.48-4.76,1.44-6.74c0.96-1.98,2.3-3.52,4.03-4.64c1.73-1.12,3.6-1.68,5.61-1.68c3.3,0,5.86,1.09,7.69,3.26
				c1.83,2.17,2.74,5.28,2.74,9.33v1.8h-17.18c0.06,2.5,0.79,4.52,2.19,6.06c1.4,1.54,3.18,2.31,5.33,2.31
				c1.53,0,2.83-0.31,3.89-0.94s1.99-1.45,2.79-2.48l2.65,2.06C303.7,1062.56,300.51,1064.19,296.26,1064.19z M295.72,1041.45
				c-1.75,0-3.22,0.64-4.41,1.91s-1.92,3.06-2.2,5.36h12.7v-0.33c-0.12-2.2-0.72-3.91-1.78-5.12S297.54,1041.45,295.72,1041.45z"/>
			<path class="st19" d="M315.25,1038.36l0.12,2.81c1.86-2.19,4.37-3.28,7.52-3.28c3.55,0,5.96,1.36,7.24,4.08
				c0.84-1.22,1.94-2.2,3.29-2.95c1.35-0.75,2.95-1.12,4.79-1.12c5.56,0,8.39,2.95,8.48,8.84v16.99h-4.34v-16.73
				c0-1.81-0.41-3.17-1.24-4.07s-2.22-1.35-4.17-1.35c-1.61,0-2.95,0.48-4.01,1.44s-1.68,2.25-1.85,3.88v16.83h-4.36v-16.62
				c0-3.69-1.8-5.53-5.41-5.53c-2.84,0-4.79,1.21-5.84,3.63v18.52h-4.34v-25.36H315.25z"/>
			<path class="st19" d="M365.14,1031.63c0-0.7,0.21-1.3,0.64-1.78c0.43-0.48,1.07-0.73,1.91-0.73c0.84,0,1.48,0.24,1.92,0.73
				s0.66,1.08,0.66,1.78s-0.22,1.29-0.66,1.76s-1.08,0.7-1.92,0.7c-0.84,0-1.48-0.23-1.91-0.7
				C365.36,1032.92,365.14,1032.34,365.14,1031.63z M369.83,1063.72h-4.34v-25.36h4.34V1063.72z"/>
			<path class="st19" d="M398.19,1051.32c0,3.86-0.88,6.97-2.65,9.33c-1.77,2.36-4.16,3.54-7.17,3.54c-3.08,0-5.5-0.98-7.27-2.93
				v12.21h-4.34v-35.11h3.96l0.21,2.81c1.77-2.19,4.22-3.28,7.36-3.28c3.05,0,5.46,1.15,7.23,3.45c1.77,2.3,2.66,5.49,2.66,9.59
				V1051.32z M393.86,1050.83c0-2.86-0.61-5.12-1.83-6.77c-1.22-1.66-2.89-2.48-5.02-2.48c-2.62,0-4.59,1.16-5.91,3.49v12.12
				c1.3,2.31,3.28,3.47,5.95,3.47c2.08,0,3.73-0.82,4.96-2.47C393.24,1056.53,393.86,1054.08,393.86,1050.83z"/>
			<path class="st19" d="M418.47,1056.99c0-1.17-0.44-2.08-1.32-2.73c-0.88-0.65-2.42-1.21-4.62-1.68c-2.2-0.47-3.94-1.03-5.23-1.69
				c-1.29-0.66-2.24-1.44-2.86-2.34s-0.93-1.98-0.93-3.23c0-2.08,0.88-3.84,2.64-5.27c1.76-1.44,4-2.16,6.74-2.16
				c2.88,0,5.21,0.74,7,2.23c1.79,1.48,2.68,3.38,2.68,5.7h-4.36c0-1.19-0.5-2.21-1.51-3.07c-1.01-0.86-2.28-1.29-3.81-1.29
				c-1.58,0-2.81,0.34-3.7,1.03s-1.34,1.59-1.34,2.7c0,1.05,0.41,1.84,1.24,2.37c0.83,0.53,2.32,1.04,4.49,1.52
				c2.16,0.48,3.92,1.06,5.26,1.73c1.34,0.67,2.34,1.48,2.99,2.43c0.65,0.95,0.97,2.1,0.97,3.46c0,2.27-0.91,4.08-2.72,5.45
				s-4.16,2.05-7.05,2.05c-2.03,0-3.83-0.36-5.39-1.08s-2.79-1.72-3.67-3.01c-0.88-1.29-1.32-2.68-1.32-4.18h4.34
				c0.08,1.45,0.66,2.61,1.75,3.46c1.09,0.85,2.52,1.28,4.3,1.28c1.64,0,2.96-0.33,3.95-1
				C417.97,1058.99,418.47,1058.1,418.47,1056.99z"/>
			<path class="st19" d="M444.11,1061.21c-1.69,1.98-4.16,2.98-7.43,2.98c-2.7,0-4.76-0.79-6.18-2.36s-2.13-3.89-2.14-6.97v-16.5
				h4.34v16.38c0,3.84,1.56,5.77,4.69,5.77c3.31,0,5.52-1.23,6.61-3.7v-18.45h4.34v25.36h-4.12L444.11,1061.21z"/>
			<path class="st19" d="M458.99,1038.36l0.12,2.81c1.86-2.19,4.37-3.28,7.52-3.28c3.55,0,5.96,1.36,7.24,4.08
				c0.84-1.22,1.94-2.2,3.29-2.95c1.35-0.75,2.95-1.12,4.79-1.12c5.56,0,8.39,2.95,8.48,8.84v16.99h-4.34v-16.73
				c0-1.81-0.41-3.17-1.24-4.07c-0.83-0.9-2.22-1.35-4.17-1.35c-1.61,0-2.95,0.48-4.01,1.44s-1.68,2.25-1.85,3.88v16.83h-4.36
				v-16.62c0-3.69-1.8-5.53-5.41-5.53c-2.84,0-4.79,1.21-5.84,3.63v18.52h-4.34v-25.36H458.99z"/>
			<path class="st19" d="M507.81,1050.83c0-3.89,0.92-7.02,2.77-9.39c1.84-2.37,4.26-3.55,7.24-3.55c2.97,0,5.32,1.02,7.05,3.05
				v-13.22h4.34v36h-3.98l-0.21-2.72c-1.73,2.12-4.15,3.19-7.24,3.19c-2.94,0-5.33-1.2-7.18-3.61c-1.85-2.41-2.78-5.55-2.78-9.42
				V1050.83z M512.15,1051.32c0,2.88,0.59,5.12,1.78,6.75s2.83,2.44,4.92,2.44c2.75,0,4.76-1.23,6.02-3.7v-11.65
				c-1.3-2.39-3.29-3.59-5.98-3.59c-2.12,0-3.78,0.82-4.97,2.46S512.15,1048.1,512.15,1051.32z"/>
			<path class="st19" d="M534.79,1050.81c0-2.48,0.49-4.72,1.46-6.7s2.34-3.52,4.08-4.59c1.74-1.08,3.73-1.62,5.96-1.62
				c3.45,0,6.25,1.2,8.38,3.59c2.13,2.39,3.2,5.57,3.2,9.54v0.3c0,2.47-0.47,4.68-1.42,6.64c-0.95,1.96-2.3,3.49-4.05,4.58
				c-1.76,1.09-3.78,1.64-6.06,1.64c-3.44,0-6.22-1.2-8.36-3.59c-2.13-2.39-3.2-5.55-3.2-9.49V1050.81z M539.15,1051.32
				c0,2.81,0.65,5.07,1.96,6.77c1.3,1.7,3.05,2.55,5.24,2.55c2.2,0,3.95-0.86,5.25-2.59c1.3-1.73,1.95-4.14,1.95-7.25
				c0-2.78-0.66-5.04-1.98-6.76s-3.07-2.59-5.26-2.59c-2.14,0-3.87,0.85-5.18,2.55S539.15,1048.15,539.15,1051.32z"/>
			<path class="st19" d="M568.02,1063.72h-4.34v-36h4.34V1063.72z"/>
			<path class="st19" d="M573.81,1050.81c0-2.48,0.49-4.72,1.46-6.7c0.98-1.98,2.34-3.52,4.08-4.59c1.74-1.08,3.73-1.62,5.96-1.62
				c3.45,0,6.25,1.2,8.38,3.59s3.2,5.57,3.2,9.54v0.3c0,2.47-0.47,4.68-1.42,6.64c-0.95,1.96-2.3,3.49-4.05,4.58
				c-1.76,1.09-3.78,1.64-6.06,1.64c-3.44,0-6.22-1.2-8.36-3.59s-3.2-5.55-3.2-9.49V1050.81z M578.17,1051.32
				c0,2.81,0.65,5.07,1.96,6.77s3.05,2.55,5.24,2.55c2.2,0,3.95-0.86,5.25-2.59c1.3-1.73,1.95-4.14,1.95-7.25
				c0-2.78-0.66-5.04-1.98-6.76c-1.32-1.73-3.07-2.59-5.26-2.59c-2.14,0-3.87,0.85-5.18,2.55S578.17,1048.15,578.17,1051.32z"/>
			<path class="st19" d="M614.59,1042.25c-0.66-0.11-1.37-0.16-2.13-0.16c-2.84,0-4.77,1.21-5.79,3.63v18h-4.34v-25.36h4.22
				l0.07,2.93c1.42-2.27,3.44-3.4,6.05-3.4c0.84,0,1.48,0.11,1.92,0.33V1042.25z"/>
			<path class="st19" d="M645.22,1056.99c0-1.17-0.44-2.08-1.32-2.73c-0.88-0.65-2.42-1.21-4.62-1.68c-2.2-0.47-3.94-1.03-5.23-1.69
				c-1.29-0.66-2.24-1.44-2.86-2.34s-0.93-1.98-0.93-3.23c0-2.08,0.88-3.84,2.64-5.27c1.76-1.44,4-2.16,6.74-2.16
				c2.88,0,5.21,0.74,7,2.23c1.79,1.48,2.68,3.38,2.68,5.7h-4.36c0-1.19-0.5-2.21-1.51-3.07c-1.01-0.86-2.28-1.29-3.81-1.29
				c-1.58,0-2.81,0.34-3.7,1.03c-0.89,0.69-1.34,1.59-1.34,2.7c0,1.05,0.41,1.84,1.24,2.37c0.83,0.53,2.32,1.04,4.49,1.52
				c2.16,0.48,3.92,1.06,5.26,1.73c1.34,0.67,2.34,1.48,2.99,2.43c0.65,0.95,0.97,2.1,0.97,3.46c0,2.27-0.91,4.08-2.72,5.45
				s-4.16,2.05-7.05,2.05c-2.03,0-3.83-0.36-5.39-1.08c-1.56-0.72-2.79-1.72-3.67-3.01c-0.88-1.29-1.32-2.68-1.32-4.18h4.34
				c0.08,1.45,0.66,2.61,1.75,3.46c1.09,0.85,2.52,1.28,4.3,1.28c1.64,0,2.96-0.33,3.95-1
				C644.73,1058.99,645.22,1058.1,645.22,1056.99z"/>
			<path class="st19" d="M655.23,1031.63c0-0.7,0.21-1.3,0.64-1.78s1.07-0.73,1.91-0.73c0.84,0,1.48,0.24,1.92,0.73
				c0.44,0.48,0.66,1.08,0.66,1.78s-0.22,1.29-0.66,1.76c-0.44,0.47-1.08,0.7-1.92,0.7c-0.84,0-1.48-0.23-1.91-0.7
				S655.23,1032.34,655.23,1031.63z M659.92,1063.72h-4.34v-25.36h4.34V1063.72z"/>
			<path class="st19" d="M672.74,1032.22v6.14h4.73v3.35h-4.73v15.75c0,1.02,0.21,1.78,0.63,2.29c0.42,0.51,1.14,0.76,2.16,0.76
				c0.5,0,1.19-0.09,2.06-0.28v3.5c-1.14,0.31-2.25,0.47-3.33,0.47c-1.94,0-3.4-0.59-4.38-1.76s-1.48-2.84-1.48-4.99v-15.73h-4.62
				v-3.35h4.62v-6.14H672.74z"/>
			<path class="st19" d="M710.07,1063.72c-0.25-0.5-0.45-1.39-0.61-2.67c-2.02,2.09-4.42,3.14-7.22,3.14c-2.5,0-4.55-0.71-6.15-2.12
				c-1.6-1.41-2.4-3.21-2.4-5.38c0-2.64,1-4.69,3.01-6.15c2.01-1.46,4.83-2.19,8.47-2.19h4.22v-1.99c0-1.52-0.45-2.72-1.36-3.62
				c-0.91-0.9-2.24-1.35-4.01-1.35c-1.55,0-2.84,0.39-3.89,1.17c-1.05,0.78-1.57,1.73-1.57,2.84h-4.36c0-1.27,0.45-2.49,1.35-3.67
				c0.9-1.18,2.12-2.11,3.66-2.8c1.54-0.69,3.23-1.03,5.07-1.03c2.92,0,5.21,0.73,6.87,2.19c1.66,1.46,2.52,3.47,2.58,6.04v11.67
				c0,2.33,0.3,4.18,0.89,5.55v0.38H710.07z M702.88,1060.42c1.36,0,2.65-0.35,3.87-1.05c1.22-0.7,2.1-1.62,2.65-2.74v-5.2H706
				c-5.31,0-7.97,1.55-7.97,4.66c0,1.36,0.45,2.42,1.36,3.19C700.29,1060.03,701.46,1060.42,702.88,1060.42z"/>
			<path class="st19" d="M724.61,1038.36l0.12,2.81c1.86-2.19,4.37-3.28,7.52-3.28c3.55,0,5.96,1.36,7.24,4.08
				c0.84-1.22,1.94-2.2,3.29-2.95c1.35-0.75,2.95-1.12,4.79-1.12c5.56,0,8.39,2.95,8.48,8.84v16.99h-4.34v-16.73
				c0-1.81-0.41-3.17-1.24-4.07c-0.83-0.9-2.22-1.35-4.17-1.35c-1.61,0-2.95,0.48-4.01,1.44s-1.68,2.25-1.85,3.88v16.83h-4.36
				v-16.62c0-3.69-1.8-5.53-5.41-5.53c-2.84,0-4.79,1.21-5.84,3.63v18.52h-4.34v-25.36H724.61z"/>
			<path class="st19" d="M773.12,1064.19c-3.44,0-6.23-1.13-8.39-3.39c-2.16-2.26-3.23-5.28-3.23-9.06v-0.8
				c0-2.52,0.48-4.76,1.44-6.74c0.96-1.98,2.3-3.52,4.03-4.64c1.73-1.12,3.6-1.68,5.61-1.68c3.3,0,5.86,1.09,7.69,3.26
				c1.83,2.17,2.74,5.28,2.74,9.33v1.8h-17.18c0.06,2.5,0.79,4.52,2.19,6.06c1.4,1.54,3.18,2.31,5.33,2.31
				c1.53,0,2.83-0.31,3.89-0.94s1.99-1.45,2.79-2.48l2.65,2.06C780.56,1062.56,777.37,1064.19,773.12,1064.19z M772.58,1041.45
				c-1.75,0-3.22,0.64-4.41,1.91s-1.92,3.06-2.2,5.36h12.7v-0.33c-0.12-2.2-0.72-3.91-1.78-5.12
				C775.83,1042.06,774.4,1041.45,772.58,1041.45z"/>
			<path class="st19" d="M793.91,1032.22v6.14h4.73v3.35h-4.73v15.75c0,1.02,0.21,1.78,0.63,2.29c0.42,0.51,1.14,0.76,2.16,0.76
				c0.5,0,1.19-0.09,2.06-0.28v3.5c-1.14,0.31-2.25,0.47-3.33,0.47c-1.94,0-3.4-0.59-4.38-1.76c-0.98-1.17-1.48-2.84-1.48-4.99
				v-15.73h-4.62v-3.35h4.62v-6.14H793.91z"/>
			<path class="st19" d="M803.57,1070.52l-2.46-1.69c1.47-2.05,2.23-4.16,2.3-6.33v-3.91h4.24v3.4c0,1.58-0.39,3.16-1.16,4.73
				C805.71,1068.3,804.74,1069.56,803.57,1070.52z"/>
			<path class="st19" d="M226.91,1118.25c1.55,0,2.9-0.47,4.05-1.41c1.16-0.94,1.8-2.11,1.92-3.52h4.1
				c-0.08,1.45-0.58,2.84-1.5,4.15c-0.92,1.31-2.15,2.36-3.69,3.14c-1.54,0.78-3.17,1.17-4.89,1.17c-3.45,0-6.2-1.15-8.24-3.46
				c-2.04-2.3-3.06-5.46-3.06-9.46v-0.73c0-2.47,0.45-4.66,1.36-6.59c0.91-1.92,2.21-3.41,3.9-4.48c1.7-1.06,3.7-1.59,6.01-1.59
				c2.84,0,5.21,0.85,7.09,2.55c1.88,1.7,2.89,3.91,3.01,6.63h-4.1c-0.12-1.64-0.75-2.99-1.86-4.04s-2.5-1.58-4.14-1.58
				c-2.2,0-3.91,0.79-5.12,2.38c-1.21,1.59-1.82,3.88-1.82,6.88v0.82c0,2.92,0.6,5.17,1.8,6.75S224.68,1118.25,226.91,1118.25z"/>
			<path class="st19" d="M240.72,1108.41c0-2.48,0.49-4.72,1.46-6.7c0.98-1.98,2.34-3.52,4.08-4.59c1.74-1.08,3.73-1.62,5.96-1.62
				c3.45,0,6.25,1.2,8.38,3.59c2.13,2.39,3.2,5.57,3.2,9.54v0.3c0,2.47-0.47,4.68-1.42,6.64c-0.95,1.96-2.3,3.49-4.05,4.58
				c-1.76,1.09-3.78,1.64-6.06,1.64c-3.44,0-6.22-1.2-8.36-3.59c-2.13-2.39-3.2-5.55-3.2-9.49V1108.41z M245.07,1108.92
				c0,2.81,0.65,5.07,1.96,6.77c1.3,1.7,3.05,2.55,5.24,2.55c2.2,0,3.95-0.86,5.25-2.59s1.95-4.14,1.95-7.25
				c0-2.78-0.66-5.04-1.98-6.76s-3.07-2.59-5.26-2.59c-2.14,0-3.87,0.85-5.18,2.55C245.73,1103.31,245.07,1105.75,245.07,1108.92z"
				/>
			<path class="st19" d="M273.34,1095.96l0.14,3.19c1.94-2.44,4.47-3.66,7.59-3.66c5.36,0,8.06,3.02,8.11,9.07v16.76h-4.34v-16.78
				c-0.02-1.83-0.43-3.18-1.25-4.05c-0.82-0.88-2.1-1.31-3.83-1.31c-1.41,0-2.64,0.38-3.7,1.12s-1.89,1.73-2.48,2.95v18.07h-4.34
				v-25.36H273.34z"/>
			<path class="st19" d="M310.49,1114.59c0-1.17-0.44-2.08-1.32-2.73c-0.88-0.65-2.42-1.21-4.62-1.68s-3.94-1.03-5.23-1.69
				c-1.29-0.66-2.24-1.44-2.86-2.34s-0.93-1.98-0.93-3.23c0-2.08,0.88-3.84,2.64-5.27s4-2.16,6.74-2.16c2.88,0,5.21,0.74,7,2.23
				c1.79,1.48,2.68,3.38,2.68,5.7h-4.36c0-1.19-0.5-2.21-1.51-3.07c-1.01-0.86-2.28-1.29-3.81-1.29c-1.58,0-2.81,0.34-3.7,1.03
				s-1.34,1.59-1.34,2.7c0,1.05,0.41,1.84,1.24,2.37c0.83,0.53,2.32,1.04,4.49,1.52c2.16,0.48,3.92,1.06,5.26,1.73
				c1.34,0.67,2.34,1.48,2.99,2.43c0.65,0.95,0.97,2.1,0.97,3.46c0,2.27-0.91,4.08-2.72,5.45s-4.16,2.05-7.05,2.05
				c-2.03,0-3.83-0.36-5.39-1.08s-2.79-1.72-3.67-3.01c-0.88-1.29-1.32-2.68-1.32-4.18H299c0.08,1.45,0.66,2.61,1.75,3.46
				s2.52,1.28,4.3,1.28c1.64,0,2.96-0.33,3.95-1C309.99,1116.59,310.49,1115.7,310.49,1114.59z"/>
			<path class="st19" d="M331,1121.79c-3.44,0-6.23-1.13-8.39-3.39c-2.16-2.26-3.23-5.28-3.23-9.06v-0.8c0-2.52,0.48-4.76,1.44-6.74
				s2.3-3.52,4.03-4.64c1.73-1.12,3.6-1.68,5.61-1.68c3.3,0,5.86,1.09,7.69,3.26s2.74,5.28,2.74,9.33v1.8h-17.18
				c0.06,2.5,0.79,4.52,2.19,6.06c1.4,1.54,3.18,2.31,5.33,2.31c1.53,0,2.83-0.31,3.89-0.94s1.99-1.45,2.79-2.48l2.65,2.06
				C338.43,1120.16,335.25,1121.79,331,1121.79z M330.46,1099.05c-1.75,0-3.22,0.64-4.41,1.91s-1.92,3.06-2.2,5.36h12.7v-0.33
				c-0.12-2.2-0.72-3.91-1.78-5.12S332.27,1099.05,330.46,1099.05z"/>
			<path class="st19" d="M356.07,1118.25c1.55,0,2.9-0.47,4.05-1.41c1.16-0.94,1.8-2.11,1.92-3.52h4.1
				c-0.08,1.45-0.58,2.84-1.5,4.15c-0.92,1.31-2.15,2.36-3.69,3.14c-1.54,0.78-3.17,1.17-4.89,1.17c-3.45,0-6.2-1.15-8.24-3.46
				c-2.04-2.3-3.06-5.46-3.06-9.46v-0.73c0-2.47,0.45-4.66,1.36-6.59c0.91-1.92,2.21-3.41,3.9-4.48c1.7-1.06,3.7-1.59,6.01-1.59
				c2.84,0,5.21,0.85,7.09,2.55c1.88,1.7,2.89,3.91,3.01,6.63h-4.1c-0.12-1.64-0.75-2.99-1.86-4.04s-2.5-1.58-4.14-1.58
				c-2.2,0-3.91,0.79-5.12,2.38c-1.21,1.59-1.82,3.88-1.82,6.88v0.82c0,2.92,0.6,5.17,1.8,6.75
				C352.12,1117.46,353.84,1118.25,356.07,1118.25z"/>
			<path class="st19" d="M376.91,1089.82v6.14h4.73v3.35h-4.73v15.75c0,1.02,0.21,1.78,0.63,2.29c0.42,0.51,1.14,0.76,2.16,0.76
				c0.5,0,1.19-0.09,2.06-0.28v3.5c-1.14,0.31-2.25,0.46-3.33,0.46c-1.94,0-3.4-0.59-4.38-1.76c-0.98-1.17-1.48-2.84-1.48-4.99
				v-15.73h-4.62v-3.35h4.62v-6.14H376.91z"/>
			<path class="st19" d="M397.23,1121.79c-3.44,0-6.23-1.13-8.39-3.39c-2.16-2.26-3.23-5.28-3.23-9.06v-0.8
				c0-2.52,0.48-4.76,1.44-6.74c0.96-1.98,2.3-3.52,4.03-4.64c1.73-1.12,3.6-1.68,5.61-1.68c3.3,0,5.86,1.09,7.69,3.26
				s2.74,5.28,2.74,9.33v1.8h-17.18c0.06,2.5,0.79,4.52,2.19,6.06c1.4,1.54,3.18,2.31,5.33,2.31c1.53,0,2.83-0.31,3.89-0.94
				s1.99-1.45,2.79-2.48l2.65,2.06C404.67,1120.16,401.48,1121.79,397.23,1121.79z M396.69,1099.05c-1.75,0-3.22,0.64-4.41,1.91
				s-1.92,3.06-2.2,5.36h12.7v-0.33c-0.12-2.2-0.72-3.91-1.78-5.12S398.5,1099.05,396.69,1099.05z"/>
			<path class="st19" d="M418.02,1089.82v6.14h4.73v3.35h-4.73v15.75c0,1.02,0.21,1.78,0.63,2.29c0.42,0.51,1.14,0.76,2.16,0.76
				c0.5,0,1.19-0.09,2.06-0.28v3.5c-1.14,0.31-2.25,0.46-3.33,0.46c-1.94,0-3.4-0.59-4.38-1.76c-0.98-1.17-1.48-2.84-1.48-4.99
				v-15.73h-4.62v-3.35h4.62v-6.14H418.02z"/>
			<path class="st19" d="M443.47,1118.81c-1.69,1.98-4.16,2.98-7.43,2.98c-2.7,0-4.76-0.79-6.18-2.36
				c-1.41-1.57-2.13-3.89-2.14-6.97v-16.5h4.34v16.38c0,3.84,1.56,5.77,4.69,5.77c3.31,0,5.52-1.23,6.61-3.7v-18.45h4.34v25.36
				h-4.12L443.47,1118.81z"/>
			<path class="st19" d="M464.8,1121.79c-3.44,0-6.23-1.13-8.39-3.39c-2.16-2.26-3.23-5.28-3.23-9.06v-0.8
				c0-2.52,0.48-4.76,1.44-6.74c0.96-1.98,2.3-3.52,4.03-4.64c1.73-1.12,3.6-1.68,5.61-1.68c3.3,0,5.86,1.09,7.69,3.26
				c1.83,2.17,2.74,5.28,2.74,9.33v1.8h-17.18c0.06,2.5,0.79,4.52,2.19,6.06c1.4,1.54,3.18,2.31,5.33,2.31
				c1.53,0,2.83-0.31,3.89-0.94s1.99-1.45,2.79-2.48l2.65,2.06C472.24,1120.16,469.05,1121.79,464.8,1121.79z M464.26,1099.05
				c-1.75,0-3.22,0.64-4.41,1.91s-1.92,3.06-2.2,5.36h12.7v-0.33c-0.12-2.2-0.72-3.91-1.78-5.12S466.07,1099.05,464.26,1099.05z"/>
			<path class="st19" d="M491.97,1099.85c-0.66-0.11-1.37-0.16-2.13-0.16c-2.84,0-4.77,1.21-5.79,3.63v18h-4.34v-25.36h4.22
				l0.07,2.93c1.42-2.27,3.44-3.4,6.05-3.4c0.84,0,1.48,0.11,1.92,0.33V1099.85z"/>
			<path class="st19" d="M523.49,1121.32c-0.25-0.5-0.45-1.39-0.61-2.67c-2.02,2.09-4.42,3.14-7.22,3.14c-2.5,0-4.55-0.71-6.15-2.12
				c-1.6-1.41-2.4-3.21-2.4-5.38c0-2.64,1-4.69,3.01-6.15c2.01-1.46,4.83-2.19,8.47-2.19h4.22v-1.99c0-1.52-0.45-2.72-1.36-3.62
				c-0.91-0.9-2.24-1.35-4.01-1.35c-1.55,0-2.84,0.39-3.89,1.17c-1.05,0.78-1.57,1.73-1.57,2.84h-4.36c0-1.27,0.45-2.49,1.35-3.67
				c0.9-1.18,2.12-2.11,3.66-2.8c1.54-0.69,3.23-1.03,5.07-1.03c2.92,0,5.21,0.73,6.87,2.19c1.66,1.46,2.52,3.47,2.58,6.04v11.67
				c0,2.33,0.3,4.18,0.89,5.55v0.38H523.49z M516.29,1118.01c1.36,0,2.65-0.35,3.87-1.05c1.22-0.7,2.1-1.62,2.65-2.74v-5.2h-3.4
				c-5.31,0-7.97,1.55-7.97,4.66c0,1.36,0.45,2.42,1.36,3.19C513.71,1117.63,514.87,1118.01,516.29,1118.01z"/>
			<path class="st19" d="M532.89,1108.43c0-3.89,0.92-7.02,2.77-9.39c1.84-2.37,4.26-3.55,7.24-3.55c2.97,0,5.32,1.02,7.05,3.05
				v-13.22h4.34v36h-3.98l-0.21-2.72c-1.73,2.12-4.15,3.19-7.24,3.19c-2.94,0-5.33-1.2-7.18-3.61c-1.85-2.41-2.78-5.55-2.78-9.42
				V1108.43z M537.22,1108.92c0,2.88,0.59,5.12,1.78,6.75s2.83,2.44,4.92,2.44c2.75,0,4.76-1.23,6.02-3.7v-11.65
				c-1.3-2.39-3.29-3.59-5.98-3.59c-2.12,0-3.78,0.82-4.97,2.46S537.22,1105.7,537.22,1108.92z"/>
			<path class="st19" d="M561.04,1089.23c0-0.7,0.21-1.3,0.64-1.78s1.07-0.73,1.91-0.73c0.84,0,1.48,0.24,1.92,0.73
				s0.66,1.08,0.66,1.78s-0.22,1.29-0.66,1.76s-1.08,0.7-1.92,0.7c-0.84,0-1.48-0.23-1.91-0.7S561.04,1089.94,561.04,1089.23z
				 M565.72,1121.32h-4.34v-25.36h4.34V1121.32z"/>
			<path class="st19" d="M594.08,1108.92c0,3.86-0.88,6.97-2.65,9.33s-4.16,3.54-7.17,3.54c-3.08,0-5.5-0.98-7.27-2.93v12.21h-4.34
				v-35.11h3.96l0.21,2.81c1.77-2.19,4.22-3.28,7.36-3.28c3.05,0,5.46,1.15,7.23,3.45c1.77,2.3,2.66,5.49,2.66,9.59V1108.92z
				 M589.75,1108.43c0-2.86-0.61-5.12-1.83-6.77s-2.89-2.48-5.02-2.48c-2.62,0-4.59,1.16-5.91,3.49v12.12
				c1.3,2.31,3.28,3.47,5.95,3.47c2.08,0,3.73-0.82,4.96-2.47C589.13,1114.13,589.75,1111.68,589.75,1108.43z"/>
			<path class="st19" d="M599.61,1089.23c0-0.7,0.21-1.3,0.64-1.78s1.07-0.73,1.91-0.73s1.48,0.24,1.92,0.73s0.66,1.08,0.66,1.78
				s-0.22,1.29-0.66,1.76s-1.08,0.7-1.92,0.7s-1.48-0.23-1.91-0.7S599.61,1089.94,599.61,1089.23z M604.3,1121.32h-4.34v-25.36h4.34
				V1121.32z"/>
			<path class="st19" d="M626,1114.59c0-1.17-0.44-2.08-1.32-2.73s-2.42-1.21-4.62-1.68s-3.94-1.03-5.23-1.69
				c-1.29-0.66-2.24-1.44-2.86-2.34c-0.62-0.91-0.93-1.98-0.93-3.23c0-2.08,0.88-3.84,2.64-5.27s4-2.16,6.74-2.16
				c2.88,0,5.21,0.74,7,2.23c1.79,1.48,2.68,3.38,2.68,5.7h-4.36c0-1.19-0.5-2.21-1.51-3.07c-1.01-0.86-2.28-1.29-3.81-1.29
				c-1.58,0-2.81,0.34-3.7,1.03c-0.89,0.69-1.34,1.59-1.34,2.7c0,1.05,0.41,1.84,1.24,2.37c0.83,0.53,2.32,1.04,4.49,1.52
				c2.16,0.48,3.92,1.06,5.26,1.73c1.34,0.67,2.34,1.48,2.99,2.43c0.65,0.95,0.97,2.1,0.97,3.46c0,2.27-0.91,4.08-2.72,5.45
				s-4.16,2.05-7.05,2.05c-2.03,0-3.83-0.36-5.39-1.08s-2.79-1.72-3.67-3.01s-1.32-2.68-1.32-4.18h4.34
				c0.08,1.45,0.66,2.61,1.75,3.46c1.09,0.85,2.52,1.28,4.3,1.28c1.64,0,2.96-0.33,3.95-1C625.51,1116.59,626,1115.7,626,1114.59z"
				/>
			<path class="st19" d="M646.16,1118.25c1.55,0,2.9-0.47,4.05-1.41c1.16-0.94,1.8-2.11,1.92-3.52h4.1
				c-0.08,1.45-0.58,2.84-1.5,4.15c-0.92,1.31-2.15,2.36-3.69,3.14c-1.54,0.78-3.17,1.17-4.89,1.17c-3.45,0-6.2-1.15-8.24-3.46
				c-2.04-2.3-3.06-5.46-3.06-9.46v-0.73c0-2.47,0.45-4.66,1.36-6.59c0.91-1.92,2.21-3.41,3.9-4.48s3.7-1.59,6.01-1.59
				c2.84,0,5.21,0.85,7.09,2.55c1.88,1.7,2.89,3.91,3.01,6.63h-4.1c-0.12-1.64-0.75-2.99-1.86-4.04c-1.12-1.05-2.5-1.58-4.14-1.58
				c-2.2,0-3.91,0.79-5.12,2.38c-1.21,1.59-1.82,3.88-1.82,6.88v0.82c0,2.92,0.6,5.17,1.8,6.75
				C642.21,1117.46,643.93,1118.25,646.16,1118.25z"/>
			<path class="st19" d="M661.14,1089.23c0-0.7,0.21-1.3,0.64-1.78c0.43-0.48,1.07-0.73,1.91-0.73c0.84,0,1.48,0.24,1.92,0.73
				s0.66,1.08,0.66,1.78s-0.22,1.29-0.66,1.76s-1.08,0.7-1.92,0.7c-0.84,0-1.48-0.23-1.91-0.7
				C661.35,1090.52,661.14,1089.94,661.14,1089.23z M665.82,1121.32h-4.34v-25.36h4.34V1121.32z"/>
			<path class="st19" d="M676.86,1095.96l0.14,3.19c1.94-2.44,4.47-3.66,7.59-3.66c5.36,0,8.06,3.02,8.11,9.07v16.76h-4.34v-16.78
				c-0.02-1.83-0.43-3.18-1.25-4.05s-2.1-1.31-3.83-1.31c-1.41,0-2.64,0.38-3.7,1.12c-1.06,0.75-1.89,1.73-2.48,2.95v18.07h-4.34
				v-25.36H676.86z"/>
			<path class="st19" d="M698.22,1108.43c0-3.95,0.91-7.1,2.74-9.43c1.83-2.34,4.25-3.5,7.27-3.5c3.09,0,5.51,1.09,7.24,3.28
				l0.21-2.81h3.96v24.75c0,3.28-0.97,5.87-2.92,7.76c-1.95,1.89-4.56,2.84-7.84,2.84c-1.83,0-3.62-0.39-5.37-1.17
				s-3.09-1.85-4.01-3.21l2.25-2.6c1.86,2.3,4.13,3.45,6.82,3.45c2.11,0,3.75-0.59,4.93-1.78c1.18-1.19,1.77-2.86,1.77-5.02v-2.18
				c-1.73,2-4.1,3-7.1,3c-2.97,0-5.37-1.2-7.21-3.59C699.13,1115.81,698.22,1112.55,698.22,1108.43z M702.57,1108.92
				c0,2.86,0.59,5.11,1.76,6.74c1.17,1.63,2.81,2.45,4.92,2.45c2.73,0,4.74-1.24,6.02-3.73v-11.58c-1.33-2.42-3.32-3.63-5.98-3.63
				c-2.11,0-3.76,0.82-4.95,2.46C703.17,1103.27,702.57,1105.7,702.57,1108.92z"/>
			<path class="st19" d="M748.58,1121.79c-3.44,0-6.23-1.13-8.39-3.39c-2.16-2.26-3.23-5.28-3.23-9.06v-0.8
				c0-2.52,0.48-4.76,1.44-6.74c0.96-1.98,2.3-3.52,4.03-4.64c1.73-1.12,3.6-1.68,5.61-1.68c3.3,0,5.86,1.09,7.69,3.26
				c1.83,2.17,2.74,5.28,2.74,9.33v1.8h-17.18c0.06,2.5,0.79,4.52,2.19,6.06c1.4,1.54,3.18,2.31,5.33,2.31
				c1.53,0,2.83-0.31,3.89-0.94c1.06-0.62,1.99-1.45,2.79-2.48l2.65,2.06C756.02,1120.16,752.83,1121.79,748.58,1121.79z
				 M748.04,1099.05c-1.75,0-3.22,0.64-4.41,1.91s-1.92,3.06-2.2,5.36h12.7v-0.33c-0.12-2.2-0.72-3.91-1.78-5.12
				C751.29,1099.66,749.86,1099.05,748.04,1099.05z"/>
			<path class="st19" d="M768.2,1121.32h-4.34v-36h4.34V1121.32z"/>
			<path class="st19" d="M775.16,1089.23c0-0.7,0.21-1.3,0.64-1.78s1.07-0.73,1.91-0.73c0.84,0,1.48,0.24,1.92,0.73
				s0.66,1.08,0.66,1.78s-0.22,1.29-0.66,1.76s-1.08,0.7-1.92,0.7c-0.84,0-1.48-0.23-1.91-0.7S775.16,1089.94,775.16,1089.23z
				 M779.85,1121.32h-4.34v-25.36h4.34V1121.32z"/>
			<path class="st19" d="M792.67,1089.82v6.14h4.73v3.35h-4.73v15.75c0,1.02,0.21,1.78,0.63,2.29c0.42,0.51,1.14,0.76,2.16,0.76
				c0.5,0,1.19-0.09,2.06-0.28v3.5c-1.14,0.31-2.25,0.46-3.33,0.46c-1.94,0-3.4-0.59-4.38-1.76s-1.48-2.84-1.48-4.99v-15.73h-4.62
				v-3.35h4.62v-6.14H792.67z"/>
			<path class="st19" d="M802.32,1128.12l-2.46-1.69c1.47-2.05,2.23-4.16,2.3-6.33v-3.91h4.24v3.4c0,1.58-0.39,3.16-1.16,4.73
				C804.47,1125.9,803.5,1127.16,802.32,1128.12z"/>
			<path class="st19" d="M231.5,1172.19c0-1.17-0.44-2.08-1.32-2.73c-0.88-0.65-2.42-1.21-4.62-1.68c-2.2-0.47-3.94-1.03-5.23-1.69
				c-1.29-0.66-2.24-1.44-2.86-2.34c-0.62-0.91-0.93-1.98-0.93-3.23c0-2.08,0.88-3.84,2.64-5.27c1.76-1.44,4-2.16,6.74-2.16
				c2.88,0,5.21,0.74,7,2.23c1.79,1.48,2.68,3.38,2.68,5.7h-4.36c0-1.19-0.5-2.21-1.51-3.07s-2.28-1.29-3.81-1.29
				c-1.58,0-2.81,0.34-3.7,1.03c-0.89,0.69-1.34,1.59-1.34,2.7c0,1.05,0.41,1.84,1.24,2.37s2.32,1.04,4.49,1.52
				c2.16,0.48,3.92,1.06,5.26,1.73c1.34,0.67,2.34,1.48,2.99,2.43c0.65,0.95,0.97,2.1,0.97,3.46c0,2.27-0.91,4.08-2.72,5.45
				s-4.16,2.05-7.05,2.05c-2.03,0-3.83-0.36-5.39-1.08s-2.79-1.72-3.67-3.01c-0.88-1.29-1.32-2.68-1.32-4.18h4.34
				c0.08,1.45,0.66,2.61,1.75,3.46c1.09,0.85,2.52,1.28,4.3,1.28c1.64,0,2.96-0.33,3.95-1S231.5,1173.3,231.5,1172.19z"/>
			<path class="st19" d="M252.01,1179.39c-3.44,0-6.23-1.13-8.39-3.39c-2.16-2.26-3.23-5.28-3.23-9.06v-0.8
				c0-2.52,0.48-4.76,1.44-6.74c0.96-1.98,2.3-3.52,4.03-4.64c1.73-1.12,3.6-1.68,5.61-1.68c3.3,0,5.86,1.09,7.69,3.26
				c1.83,2.17,2.74,5.28,2.74,9.33v1.8h-17.18c0.06,2.5,0.79,4.52,2.19,6.06c1.4,1.54,3.18,2.31,5.33,2.31
				c1.53,0,2.83-0.31,3.89-0.94c1.06-0.62,1.99-1.45,2.79-2.48l2.65,2.06C259.45,1177.76,256.26,1179.39,252.01,1179.39z
				 M251.47,1156.65c-1.75,0-3.22,0.64-4.41,1.91s-1.92,3.06-2.2,5.36h12.7v-0.33c-0.12-2.2-0.72-3.91-1.78-5.12
				C254.72,1157.26,253.29,1156.65,251.47,1156.65z"/>
			<path class="st19" d="M265.86,1166.03c0-3.89,0.92-7.02,2.77-9.39c1.84-2.37,4.26-3.55,7.24-3.55c2.97,0,5.32,1.02,7.05,3.05
				v-13.22h4.34v36h-3.98l-0.21-2.72c-1.73,2.12-4.15,3.19-7.24,3.19c-2.94,0-5.33-1.2-7.18-3.61c-1.85-2.41-2.78-5.55-2.78-9.42
				V1166.03z M270.2,1166.52c0,2.88,0.59,5.12,1.78,6.75s2.83,2.44,4.92,2.44c2.75,0,4.76-1.23,6.02-3.7v-11.65
				c-1.3-2.39-3.29-3.59-5.98-3.59c-2.12,0-3.78,0.82-4.97,2.46S270.2,1163.3,270.2,1166.52z"/>
			<path class="st19" d="M304.82,1166.03c0-3.89,0.92-7.02,2.77-9.39c1.84-2.37,4.26-3.55,7.24-3.55c2.97,0,5.32,1.02,7.05,3.05
				v-13.22h4.34v36h-3.98l-0.21-2.72c-1.73,2.12-4.15,3.19-7.24,3.19c-2.94,0-5.33-1.2-7.18-3.61c-1.85-2.41-2.78-5.55-2.78-9.42
				V1166.03z M309.15,1166.52c0,2.88,0.59,5.12,1.78,6.75s2.83,2.44,4.92,2.44c2.75,0,4.76-1.23,6.02-3.7v-11.65
				c-1.3-2.39-3.29-3.59-5.98-3.59c-2.12,0-3.78,0.82-4.97,2.46S309.15,1163.3,309.15,1166.52z"/>
			<path class="st19" d="M332.97,1146.83c0-0.7,0.21-1.3,0.64-1.78s1.07-0.73,1.91-0.73c0.84,0,1.48,0.24,1.92,0.73
				s0.66,1.08,0.66,1.78s-0.22,1.29-0.66,1.76s-1.08,0.7-1.92,0.7c-0.84,0-1.48-0.23-1.91-0.7S332.97,1147.54,332.97,1146.83z
				 M337.65,1178.92h-4.34v-25.36h4.34V1178.92z"/>
			<path class="st19" d="M360.25,1178.92c-0.25-0.5-0.45-1.39-0.61-2.67c-2.02,2.09-4.42,3.14-7.22,3.14c-2.5,0-4.55-0.71-6.15-2.12
				c-1.6-1.41-2.4-3.21-2.4-5.38c0-2.64,1-4.69,3.01-6.15c2.01-1.46,4.83-2.19,8.47-2.19h4.22v-1.99c0-1.52-0.45-2.72-1.36-3.62
				c-0.91-0.9-2.24-1.35-4.01-1.35c-1.55,0-2.84,0.39-3.89,1.17s-1.57,1.73-1.57,2.84h-4.36c0-1.27,0.45-2.49,1.35-3.67
				c0.9-1.18,2.12-2.11,3.66-2.8c1.54-0.69,3.23-1.03,5.07-1.03c2.92,0,5.21,0.73,6.87,2.19c1.66,1.46,2.52,3.47,2.58,6.04v11.67
				c0,2.33,0.3,4.18,0.89,5.55v0.38H360.25z M353.05,1175.62c1.36,0,2.65-0.35,3.87-1.05c1.22-0.7,2.1-1.62,2.65-2.74v-5.2h-3.4
				c-5.31,0-7.97,1.55-7.97,4.66c0,1.36,0.45,2.42,1.36,3.19C350.47,1175.23,351.63,1175.62,353.05,1175.62z"/>
			<path class="st19" d="M374.78,1153.56l0.12,2.81c1.86-2.19,4.37-3.28,7.52-3.28c3.55,0,5.96,1.36,7.24,4.08
				c0.84-1.22,1.94-2.2,3.29-2.95c1.35-0.75,2.95-1.12,4.79-1.12c5.56,0,8.39,2.95,8.48,8.84v16.99h-4.34v-16.73
				c0-1.81-0.41-3.17-1.24-4.07c-0.83-0.9-2.22-1.35-4.17-1.35c-1.61,0-2.95,0.48-4.01,1.44s-1.68,2.25-1.85,3.88v16.83h-4.36
				v-16.62c0-3.69-1.8-5.53-5.41-5.53c-2.84,0-4.79,1.21-5.84,3.63v18.52h-4.34v-25.36H374.78z"/>
			<path class="st19" d="M428.75,1153.56l0.14,3.19c1.94-2.44,4.47-3.66,7.59-3.66c5.36,0,8.06,3.02,8.11,9.07v16.76h-4.34v-16.78
				c-0.02-1.83-0.43-3.18-1.25-4.05c-0.82-0.88-2.1-1.31-3.83-1.31c-1.41,0-2.64,0.38-3.7,1.12s-1.89,1.73-2.48,2.95v18.07h-4.34
				v-25.36H428.75z"/>
			<path class="st19" d="M449.99,1166.01c0-2.48,0.49-4.72,1.46-6.7c0.98-1.98,2.34-3.52,4.08-4.59c1.74-1.08,3.73-1.62,5.96-1.62
				c3.45,0,6.25,1.2,8.38,3.59s3.2,5.57,3.2,9.54v0.3c0,2.47-0.47,4.68-1.42,6.64c-0.95,1.96-2.3,3.49-4.05,4.58
				c-1.76,1.09-3.78,1.64-6.06,1.64c-3.44,0-6.22-1.2-8.36-3.59s-3.2-5.55-3.2-9.49V1166.01z M454.35,1166.52
				c0,2.81,0.65,5.07,1.96,6.77c1.3,1.7,3.05,2.55,5.24,2.55c2.2,0,3.95-0.86,5.25-2.59c1.3-1.73,1.95-4.14,1.95-7.25
				c0-2.78-0.66-5.04-1.98-6.76c-1.32-1.73-3.07-2.59-5.26-2.59c-2.14,0-3.87,0.85-5.18,2.55S454.35,1163.35,454.35,1166.52z"/>
			<path class="st19" d="M482.61,1153.56l0.14,3.19c1.94-2.44,4.47-3.66,7.59-3.66c5.36,0,8.06,3.02,8.11,9.07v16.76h-4.34v-16.78
				c-0.02-1.83-0.43-3.18-1.25-4.05c-0.82-0.88-2.1-1.31-3.83-1.31c-1.41,0-2.64,0.38-3.7,1.12s-1.89,1.73-2.48,2.95v18.07h-4.34
				v-25.36H482.61z"/>
			<path class="st19" d="M520.65,1176.41c-1.69,1.98-4.16,2.98-7.43,2.98c-2.7,0-4.76-0.79-6.18-2.36
				c-1.41-1.57-2.13-3.89-2.14-6.97v-16.5h4.34v16.38c0,3.84,1.56,5.77,4.69,5.77c3.31,0,5.52-1.23,6.61-3.7v-18.45h4.34v25.36
				h-4.12L520.65,1176.41z"/>
			<path class="st19" d="M535.54,1153.56l0.12,2.81c1.86-2.19,4.37-3.28,7.52-3.28c3.55,0,5.96,1.36,7.24,4.08
				c0.84-1.22,1.94-2.2,3.29-2.95c1.35-0.75,2.95-1.12,4.79-1.12c5.56,0,8.39,2.95,8.48,8.84v16.99h-4.34v-16.73
				c0-1.81-0.41-3.17-1.24-4.07c-0.83-0.9-2.22-1.35-4.17-1.35c-1.61,0-2.95,0.48-4.01,1.44c-1.06,0.96-1.68,2.25-1.85,3.88v16.83
				h-4.36v-16.62c0-3.69-1.8-5.53-5.41-5.53c-2.84,0-4.79,1.21-5.84,3.63v18.52h-4.34v-25.36H535.54z"/>
			<path class="st19" d="M577.61,1153.56l0.12,2.81c1.86-2.19,4.37-3.28,7.52-3.28c3.55,0,5.96,1.36,7.24,4.08
				c0.84-1.22,1.94-2.2,3.29-2.95c1.35-0.75,2.95-1.12,4.79-1.12c5.56,0,8.39,2.95,8.48,8.84v16.99h-4.34v-16.73
				c0-1.81-0.41-3.17-1.24-4.07c-0.83-0.9-2.22-1.35-4.17-1.35c-1.61,0-2.95,0.48-4.01,1.44s-1.68,2.25-1.85,3.88v16.83h-4.36
				v-16.62c0-3.69-1.8-5.53-5.41-5.53c-2.84,0-4.79,1.21-5.84,3.63v18.52h-4.34v-25.36H577.61z"/>
			<path class="st19" d="M623.9,1172.57l5.91-19.01h4.64l-10.2,29.27c-1.58,4.22-4.09,6.33-7.52,6.33l-0.82-0.07l-1.62-0.3v-3.52
				l1.17,0.09c1.47,0,2.61-0.3,3.43-0.89c0.82-0.59,1.5-1.68,2.03-3.26l0.96-2.58l-9.05-25.08h4.73L623.9,1172.57z"/>
			<path class="st19" d="M654.29,1153.56l0.14,3.19c1.94-2.44,4.47-3.66,7.59-3.66c5.36,0,8.06,3.02,8.11,9.07v16.76h-4.34v-16.78
				c-0.02-1.83-0.43-3.18-1.25-4.05c-0.82-0.88-2.1-1.31-3.83-1.31c-1.41,0-2.64,0.38-3.7,1.12s-1.89,1.73-2.48,2.95v18.07h-4.34
				v-25.36H654.29z"/>
			<path class="st19" d="M676.7,1146.83c0-0.7,0.21-1.3,0.64-1.78c0.43-0.48,1.07-0.73,1.91-0.73c0.84,0,1.48,0.24,1.92,0.73
				s0.66,1.08,0.66,1.78s-0.22,1.29-0.66,1.76s-1.08,0.7-1.92,0.7c-0.84,0-1.48-0.23-1.91-0.7
				C676.91,1148.12,676.7,1147.54,676.7,1146.83z M681.39,1178.92h-4.34v-25.36h4.34V1178.92z"/>
			<path class="st19" d="M709.79,1166.52c0,3.88-0.89,6.99-2.67,9.34c-1.78,2.35-4.17,3.53-7.17,3.53c-3.2,0-5.68-1.13-7.43-3.4
				l-0.21,2.93h-3.98v-36h4.34v13.43c1.75-2.17,4.16-3.26,7.24-3.26c3.08,0,5.5,1.16,7.25,3.49c1.76,2.33,2.64,5.52,2.64,9.56
				V1166.52z M705.46,1166.03c0-2.95-0.57-5.23-1.71-6.84c-1.14-1.61-2.78-2.41-4.92-2.41c-2.86,0-4.91,1.33-6.16,3.98v10.97
				c1.33,2.66,3.4,3.98,6.21,3.98c2.08,0,3.7-0.8,4.85-2.41C704.88,1171.69,705.46,1169.26,705.46,1166.03z"/>
			<path class="st19" d="M719.59,1156.63c1.92-2.36,4.42-3.54,7.5-3.54c5.36,0,8.06,3.02,8.11,9.07v16.76h-4.34v-16.78
				c-0.02-1.83-0.43-3.18-1.25-4.05c-0.82-0.88-2.1-1.31-3.83-1.31c-1.41,0-2.64,0.38-3.7,1.12s-1.89,1.73-2.48,2.95v18.07h-4.34
				v-36h4.34V1156.63z"/>
		</g>
		<g class="st25">
			<g id="">
				<g>
					<path class="st26" d="M572.02,1382.05H265.61c-27.61,0-50-22.39-50-50l0,0c0-27.61,22.39-50,50-50h306.41
						c27.61,0,50,22.39,50,50l0,0C622.02,1359.67,599.64,1382.05,572.02,1382.05z"/>
				</g>
			</g>
			<g>
				<g>
					<path class="st0" d="M296.05,1337.42h16.17v3.68h-20.7v-34.12h4.52V1337.42z"/>
				</g>
				<g>
					<path class="st0" d="M327.2,1341.57c-3.44,0-6.23-1.13-8.39-3.39c-2.16-2.26-3.23-5.28-3.23-9.06v-0.8
						c0-2.52,0.48-4.76,1.44-6.74c0.96-1.98,2.3-3.52,4.03-4.64c1.73-1.12,3.6-1.68,5.61-1.68c3.3,0,5.86,1.09,7.69,3.26
						c1.83,2.17,2.74,5.28,2.74,9.33v1.8h-17.18c0.06,2.5,0.79,4.52,2.19,6.06c1.4,1.54,3.18,2.31,5.33,2.31
						c1.53,0,2.83-0.31,3.89-0.94s1.99-1.45,2.79-2.48l2.65,2.06C334.64,1339.94,331.45,1341.57,327.2,1341.57z M326.66,1318.83
						c-1.75,0-3.22,0.64-4.41,1.91s-1.92,3.06-2.2,5.36h12.7v-0.33c-0.12-2.2-0.72-3.91-1.78-5.12S328.47,1318.83,326.66,1318.83z"
						/>
				</g>
				<g>
					<path class="st0" d="M357.76,1341.1c-0.25-0.5-0.45-1.39-0.61-2.67c-2.02,2.09-4.42,3.14-7.22,3.14c-2.5,0-4.55-0.71-6.15-2.12
						c-1.6-1.41-2.4-3.21-2.4-5.38c0-2.64,1-4.69,3.01-6.15c2.01-1.46,4.83-2.19,8.47-2.19h4.22v-1.99c0-1.52-0.45-2.72-1.36-3.62
						c-0.91-0.9-2.24-1.35-4.01-1.35c-1.55,0-2.84,0.39-3.89,1.17s-1.57,1.73-1.57,2.84h-4.36c0-1.27,0.45-2.49,1.35-3.67
						c0.9-1.18,2.12-2.11,3.66-2.8c1.54-0.69,3.23-1.03,5.07-1.03c2.92,0,5.21,0.73,6.87,2.19c1.66,1.46,2.52,3.47,2.58,6.04v11.67
						c0,2.33,0.3,4.18,0.89,5.55v0.38H357.76z M350.57,1337.8c1.36,0,2.65-0.35,3.87-1.05c1.22-0.7,2.1-1.62,2.65-2.74v-5.2h-3.4
						c-5.31,0-7.97,1.55-7.97,4.66c0,1.36,0.45,2.42,1.36,3.19C347.98,1337.41,349.15,1337.8,350.57,1337.8z"/>
				</g>
				<g>
					<path class="st0" d="M380.47,1319.63c-0.66-0.11-1.37-0.16-2.13-0.16c-2.84,0-4.77,1.21-5.79,3.63v18h-4.34v-25.36h4.22
						l0.07,2.93c1.42-2.27,3.44-3.4,6.05-3.4c0.84,0,1.48,0.11,1.92,0.33V1319.63z"/>
				</g>
				<g>
					<path class="st0" d="M388.56,1315.74l0.14,3.19c1.94-2.44,4.47-3.66,7.59-3.66c5.36,0,8.06,3.02,8.11,9.07v16.76h-4.34v-16.78
						c-0.02-1.83-0.43-3.18-1.25-4.05c-0.82-0.88-2.1-1.31-3.83-1.31c-1.41,0-2.64,0.38-3.7,1.12s-1.89,1.73-2.48,2.95v18.07h-4.34
						v-25.36H388.56z"/>
				</g>
				<g>
					<path class="st0" d="M429.32,1306.98l11.16,27.84l11.16-27.84h5.84v34.12h-4.5v-13.29l0.42-14.34l-11.2,27.63h-3.45
						l-11.18-27.56l0.45,14.27v13.29h-4.5v-34.12H429.32z"/>
				</g>
				<g>
					<path class="st0" d="M463.58,1328.19c0-2.48,0.49-4.72,1.46-6.7c0.98-1.98,2.34-3.52,4.08-4.59c1.74-1.08,3.73-1.62,5.96-1.62
						c3.45,0,6.25,1.2,8.38,3.59c2.13,2.39,3.2,5.57,3.2,9.54v0.3c0,2.47-0.47,4.68-1.42,6.64c-0.95,1.96-2.3,3.49-4.05,4.58
						s-3.78,1.64-6.06,1.64c-3.44,0-6.22-1.2-8.36-3.59s-3.2-5.55-3.2-9.49V1328.19z M467.94,1328.7c0,2.81,0.65,5.07,1.96,6.77
						c1.3,1.7,3.05,2.55,5.24,2.55c2.2,0,3.95-0.86,5.25-2.59s1.95-4.14,1.95-7.25c0-2.78-0.66-5.04-1.98-6.76
						c-1.32-1.73-3.07-2.59-5.26-2.59c-2.14,0-3.87,0.85-5.18,2.55S467.94,1325.53,467.94,1328.7z"/>
				</g>
				<g>
					<path class="st0" d="M504.36,1319.63c-0.66-0.11-1.37-0.16-2.13-0.16c-2.84,0-4.77,1.21-5.79,3.63v18h-4.34v-25.36h4.22
						l0.07,2.93c1.42-2.27,3.44-3.4,6.05-3.4c0.84,0,1.48,0.11,1.92,0.33V1319.63z"/>
				</g>
				<g>
					<path class="st0" d="M518.43,1341.57c-3.44,0-6.23-1.13-8.39-3.39c-2.16-2.26-3.23-5.28-3.23-9.06v-0.8
						c0-2.52,0.48-4.76,1.44-6.74c0.96-1.98,2.3-3.52,4.03-4.64c1.73-1.12,3.6-1.68,5.61-1.68c3.3,0,5.86,1.09,7.69,3.26
						c1.83,2.17,2.74,5.28,2.74,9.33v1.8h-17.18c0.06,2.5,0.79,4.52,2.19,6.06c1.4,1.54,3.18,2.31,5.33,2.31
						c1.53,0,2.83-0.31,3.89-0.94s1.99-1.45,2.79-2.48l2.65,2.06C525.86,1339.94,522.68,1341.57,518.43,1341.57z M517.89,1318.83
						c-1.75,0-3.22,0.64-4.41,1.91s-1.92,3.06-2.2,5.36h12.7v-0.33c-0.12-2.2-0.72-3.91-1.78-5.12S519.7,1318.83,517.89,1318.83z"/>
				</g>
			</g>
		</g>
		<g class="st25">
			<g>
				<g>
					<circle class="st27" cx="278.61" cy="245.88" r="63"/>
				</g>
				<g>
					
						<ellipse transform="matrix(0.1692 -0.9856 0.9856 0.1692 -10.8772 478.864)" class="st28" cx="278.61" cy="245.88" rx="44.55" ry="44.55"/>
				</g>
			</g>
			<g>
				<g>
					<path class="st19" d="M514.13,252.51h-10.72l-2.41,6.7h-3.48l9.77-25.59h2.95l9.79,25.59h-3.46L514.13,252.51z M504.43,249.75
						h8.7l-4.36-11.97L504.43,249.75z"/>
				</g>
				<g>
					<path class="st19" d="M539.07,249.91c0,2.91-0.67,5.24-2,7c-1.34,1.76-3.13,2.65-5.38,2.65c-2.4,0-4.26-0.85-5.57-2.55
						l-0.16,2.2h-2.99v-27h3.25v10.07c1.31-1.63,3.12-2.44,5.43-2.44c2.31,0,4.12,0.87,5.44,2.62c1.32,1.75,1.98,4.14,1.98,7.17
						V249.91z M535.82,249.54c0-2.21-0.43-3.93-1.28-5.13c-0.86-1.21-2.09-1.81-3.69-1.81c-2.15,0-3.69,1-4.62,2.99v8.23
						c1,1.99,2.55,2.99,4.66,2.99c1.56,0,2.77-0.6,3.64-1.81C535.39,253.78,535.82,251.97,535.82,249.54z"/>
				</g>
				<g>
					<path class="st19" d="M542.31,249.52c0-1.86,0.37-3.54,1.1-5.03c0.73-1.49,1.75-2.64,3.06-3.45c1.31-0.81,2.8-1.21,4.47-1.21
						c2.59,0,4.68,0.9,6.28,2.69c1.6,1.79,2.4,4.18,2.4,7.15v0.23c0,1.85-0.35,3.51-1.06,4.98c-0.71,1.47-1.72,2.62-3.04,3.44
						c-1.32,0.82-2.83,1.23-4.54,1.23c-2.58,0-4.67-0.9-6.27-2.69c-1.6-1.79-2.4-4.17-2.4-7.12V249.52z M545.58,249.91
						c0,2.11,0.49,3.8,1.47,5.08c0.98,1.28,2.29,1.92,3.93,1.92c1.65,0,2.96-0.65,3.94-1.94c0.97-1.29,1.46-3.11,1.46-5.44
						c0-2.09-0.5-3.78-1.49-5.07c-0.99-1.3-2.31-1.94-3.95-1.94c-1.61,0-2.9,0.64-3.88,1.92
						C546.07,245.7,545.58,247.53,545.58,249.91z"/>
				</g>
				<g>
					<path class="st19" d="M575.44,257.33c-1.27,1.49-3.12,2.23-5.57,2.23c-2.03,0-3.57-0.59-4.63-1.77
						c-1.06-1.18-1.6-2.92-1.61-5.23v-12.38h3.25v12.29c0,2.88,1.17,4.32,3.52,4.32c2.48,0,4.14-0.93,4.96-2.78v-13.83h3.25v19.02
						h-3.09L575.44,257.33z"/>
				</g>
				<g>
					<path class="st19" d="M587.96,235.58v4.61h3.55v2.51h-3.55v11.81c0,0.76,0.16,1.33,0.47,1.72c0.32,0.38,0.86,0.57,1.62,0.57
						c0.38,0,0.89-0.07,1.55-0.21v2.62c-0.86,0.23-1.69,0.35-2.5,0.35c-1.45,0-2.55-0.44-3.29-1.32c-0.74-0.88-1.11-2.13-1.11-3.74
						V242.7h-3.46v-2.51h3.46v-4.61H587.96z"/>
				</g>
				<g>
					<path class="st19" d="M615.96,257.33c-1.27,1.49-3.12,2.23-5.57,2.23c-2.03,0-3.57-0.59-4.63-1.77
						c-1.06-1.18-1.6-2.92-1.61-5.23v-12.38h3.25v12.29c0,2.88,1.17,4.32,3.52,4.32c2.48,0,4.14-0.93,4.96-2.78v-13.83h3.25v19.02
						h-3.09L615.96,257.33z"/>
				</g>
				<g>
					<path class="st19" d="M635.14,254.16c0-0.88-0.33-1.56-0.99-2.05c-0.66-0.49-1.82-0.91-3.46-1.26
						c-1.65-0.35-2.95-0.77-3.92-1.27c-0.97-0.49-1.68-1.08-2.14-1.76c-0.46-0.68-0.69-1.49-0.69-2.43c0-1.56,0.66-2.88,1.98-3.96
						c1.32-1.08,3-1.62,5.05-1.62c2.16,0,3.91,0.56,5.25,1.67c1.34,1.11,2.01,2.54,2.01,4.27h-3.27c0-0.89-0.38-1.66-1.13-2.3
						c-0.76-0.64-1.71-0.97-2.86-0.97c-1.18,0-2.11,0.26-2.78,0.77c-0.67,0.52-1,1.19-1,2.02c0,0.79,0.31,1.38,0.93,1.78
						c0.62,0.4,1.74,0.78,3.37,1.14c1.62,0.36,2.94,0.8,3.95,1.3c1.01,0.5,1.75,1.11,2.24,1.82c0.49,0.71,0.73,1.57,0.73,2.59
						c0,1.7-0.68,3.06-2.04,4.09c-1.36,1.03-3.12,1.54-5.29,1.54c-1.52,0-2.87-0.27-4.04-0.81c-1.17-0.54-2.09-1.29-2.75-2.26
						c-0.66-0.97-0.99-2.01-0.99-3.14h3.25c0.06,1.09,0.5,1.95,1.31,2.59c0.81,0.64,1.89,0.96,3.23,0.96c1.23,0,2.22-0.25,2.96-0.75
						C634.76,255.66,635.14,255,635.14,254.16z"/>
				</g>
			</g>
			<g>
				<g>
					<path class="st19" d="M844.88,244.92v10.02h-3.38v-25.59h9.44c2.8,0,5,0.71,6.58,2.14c1.59,1.43,2.38,3.32,2.38,5.68
						c0,2.48-0.78,4.4-2.33,5.74c-1.55,1.34-3.78,2.01-6.67,2.01H844.88z M844.88,242.16h6.06c1.8,0,3.19-0.43,4.15-1.28
						c0.96-0.85,1.44-2.08,1.44-3.69c0-1.53-0.48-2.75-1.44-3.66c-0.96-0.92-2.28-1.39-3.96-1.43h-6.26V242.16z"/>
				</g>
				<g>
					<path class="st19" d="M872.9,238.84c-0.49-0.08-1.03-0.12-1.6-0.12c-2.13,0-3.58,0.91-4.34,2.72v13.5h-3.25v-19.02h3.16
						l0.05,2.2c1.07-1.7,2.58-2.55,4.54-2.55c0.63,0,1.11,0.08,1.44,0.25V238.84z"/>
				</g>
				<g>
					<path class="st19" d="M874.67,245.25c0-1.86,0.37-3.54,1.1-5.03c0.73-1.49,1.75-2.64,3.06-3.45c1.31-0.81,2.8-1.21,4.47-1.21
						c2.59,0,4.68,0.9,6.28,2.69c1.6,1.79,2.4,4.18,2.4,7.15v0.23c0,1.85-0.35,3.51-1.06,4.98s-1.72,2.62-3.04,3.44
						c-1.32,0.82-2.83,1.23-4.54,1.23c-2.58,0-4.67-0.9-6.27-2.69c-1.6-1.79-2.4-4.17-2.4-7.12V245.25z M877.94,245.64
						c0,2.11,0.49,3.8,1.47,5.08c0.98,1.28,2.29,1.92,3.93,1.92c1.65,0,2.97-0.65,3.94-1.94c0.97-1.29,1.46-3.11,1.46-5.44
						c0-2.09-0.5-3.78-1.49-5.07c-0.99-1.29-2.31-1.94-3.95-1.94c-1.61,0-2.9,0.64-3.89,1.92
						C878.43,241.43,877.94,243.26,877.94,245.64z"/>
				</g>
				<g>
					<path class="st19" d="M895.29,245.27c0-2.96,0.69-5.32,2.06-7.08c1.37-1.75,3.19-2.63,5.45-2.63c2.32,0,4.13,0.82,5.43,2.46
						l0.16-2.11h2.97v18.56c0,2.46-0.73,4.4-2.19,5.82c-1.46,1.42-3.42,2.13-5.88,2.13c-1.37,0-2.71-0.29-4.03-0.88
						c-1.31-0.59-2.31-1.39-3.01-2.41l1.69-1.95c1.39,1.72,3.1,2.58,5.12,2.58c1.58,0,2.82-0.45,3.7-1.34
						c0.88-0.89,1.33-2.14,1.33-3.76v-1.63c-1.3,1.5-3.08,2.25-5.33,2.25c-2.23,0-4.03-0.9-5.41-2.69
						C895.98,250.81,895.29,248.36,895.29,245.27z M898.56,245.64c0,2.14,0.44,3.83,1.32,5.05c0.88,1.22,2.11,1.84,3.69,1.84
						c2.05,0,3.56-0.93,4.52-2.79v-8.68c-1-1.82-2.49-2.72-4.48-2.72c-1.58,0-2.82,0.62-3.71,1.85
						C899,241.4,898.56,243.22,898.56,245.64z"/>
				</g>
				<g>
					<path class="st19" d="M925.45,238.84c-0.49-0.08-1.03-0.12-1.6-0.12c-2.13,0-3.58,0.91-4.34,2.72v13.5h-3.25v-19.02h3.16
						l0.05,2.2c1.07-1.7,2.58-2.55,4.54-2.55c0.63,0,1.11,0.08,1.44,0.25V238.84z"/>
				</g>
				<g>
					<path class="st19" d="M939.48,254.94c-0.19-0.38-0.34-1.04-0.46-2c-1.51,1.57-3.32,2.36-5.41,2.36c-1.88,0-3.41-0.53-4.61-1.59
						c-1.2-1.06-1.8-2.41-1.8-4.03c0-1.98,0.75-3.52,2.26-4.61c1.51-1.1,3.62-1.64,6.35-1.64h3.16v-1.49c0-1.14-0.34-2.04-1.02-2.72
						c-0.68-0.67-1.68-1.01-3.01-1.01c-1.16,0-2.13,0.29-2.92,0.88c-0.79,0.59-1.18,1.29-1.18,2.13h-3.27
						c0-0.95,0.34-1.87,1.01-2.75c0.67-0.88,1.59-1.58,2.74-2.1c1.15-0.52,2.42-0.77,3.81-0.77c2.19,0,3.91,0.55,5.15,1.64
						c1.24,1.1,1.89,2.6,1.93,4.53v8.75c0,1.75,0.22,3.13,0.67,4.17v0.28H939.48z M934.09,252.46c1.02,0,1.99-0.26,2.9-0.79
						c0.91-0.53,1.58-1.21,1.99-2.06v-3.9h-2.55c-3.98,0-5.98,1.17-5.98,3.5c0,1.02,0.34,1.82,1.02,2.39
						C932.15,252.17,933.02,252.46,934.09,252.46z"/>
				</g>
				<g>
					<path class="st19" d="M950.38,235.92l0.09,2.11c1.39-1.64,3.28-2.46,5.64-2.46c2.66,0,4.47,1.02,5.43,3.06
						c0.63-0.91,1.46-1.65,2.47-2.21c1.01-0.56,2.21-0.84,3.59-0.84c4.17,0,6.29,2.21,6.36,6.63v12.74h-3.25v-12.55
						c0-1.36-0.31-2.38-0.93-3.05c-0.62-0.67-1.66-1.01-3.13-1.01c-1.21,0-2.21,0.36-3.01,1.08c-0.8,0.72-1.26,1.69-1.39,2.91v12.62
						h-3.27v-12.46c0-2.77-1.35-4.15-4.06-4.15c-2.13,0-3.59,0.91-4.38,2.72v13.89h-3.25v-19.02H950.38z"/>
				</g>
				<g>
					<path class="st19" d="M989.95,249.89c0-0.88-0.33-1.56-0.99-2.05c-0.66-0.49-1.82-0.91-3.46-1.26
						c-1.65-0.35-2.95-0.77-3.92-1.27c-0.97-0.49-1.68-1.08-2.14-1.76c-0.46-0.68-0.69-1.49-0.69-2.43c0-1.56,0.66-2.88,1.98-3.96
						c1.32-1.08,3-1.62,5.05-1.62c2.16,0,3.91,0.56,5.25,1.67c1.34,1.11,2.01,2.54,2.01,4.27h-3.27c0-0.89-0.38-1.66-1.13-2.3
						s-1.71-0.97-2.86-0.97c-1.18,0-2.11,0.26-2.78,0.77c-0.67,0.52-1,1.19-1,2.02c0,0.79,0.31,1.38,0.93,1.78
						c0.62,0.4,1.74,0.78,3.37,1.14s2.94,0.8,3.95,1.3c1.01,0.5,1.75,1.11,2.24,1.82c0.49,0.71,0.73,1.57,0.73,2.59
						c0,1.7-0.68,3.06-2.04,4.09c-1.36,1.03-3.12,1.54-5.29,1.54c-1.52,0-2.87-0.27-4.04-0.81c-1.17-0.54-2.09-1.29-2.75-2.26
						c-0.66-0.97-0.99-2.01-0.99-3.14h3.25c0.06,1.09,0.5,1.95,1.31,2.59c0.81,0.64,1.89,0.96,3.23,0.96c1.23,0,2.22-0.25,2.96-0.75
						C989.58,251.39,989.95,250.72,989.95,249.89z"/>
				</g>
			</g>
			<g>
				<g>
					<path class="st19" d="M1196.15,250.56c-0.32,2.71-1.32,4.8-3,6.27c-1.68,1.47-3.92,2.21-6.71,2.21c-3.02,0-5.45-1.08-7.27-3.25
						c-1.82-2.17-2.73-5.07-2.73-8.7v-2.46c0-2.38,0.42-4.47,1.27-6.28c0.85-1.8,2.05-3.19,3.61-4.16c1.56-0.97,3.36-1.45,5.41-1.45
						c2.72,0,4.9,0.76,6.54,2.28c1.64,1.52,2.6,3.62,2.87,6.3h-3.39c-0.29-2.04-0.93-3.53-1.91-4.44c-0.98-0.92-2.35-1.38-4.1-1.38
						c-2.16,0-3.85,0.8-5.07,2.39c-1.22,1.6-1.84,3.86-1.84,6.81v2.48c0,2.78,0.58,4.99,1.74,6.63c1.16,1.64,2.78,2.46,4.87,2.46
						c1.88,0,3.31-0.42,4.32-1.27c1-0.85,1.67-2.33,2-4.44H1196.15z"/>
				</g>
				<g>
					<path class="st19" d="M1199.39,249c0-1.86,0.37-3.54,1.1-5.03c0.73-1.49,1.75-2.64,3.06-3.45c1.31-0.81,2.8-1.21,4.47-1.21
						c2.59,0,4.68,0.9,6.28,2.69s2.4,4.18,2.4,7.15v0.23c0,1.85-0.35,3.51-1.06,4.98c-0.71,1.47-1.72,2.62-3.04,3.44
						c-1.32,0.82-2.83,1.23-4.54,1.23c-2.58,0-4.67-0.9-6.27-2.69c-1.6-1.79-2.4-4.17-2.4-7.12V249z M1202.66,249.38
						c0,2.11,0.49,3.8,1.47,5.08c0.98,1.28,2.29,1.92,3.93,1.92c1.65,0,2.97-0.65,3.94-1.94c0.97-1.29,1.46-3.11,1.46-5.44
						c0-2.09-0.5-3.78-1.49-5.07c-0.99-1.29-2.31-1.94-3.95-1.94c-1.61,0-2.9,0.64-3.88,1.92
						C1203.15,245.18,1202.66,247,1202.66,249.38z"/>
				</g>
				<g>
					<path class="st19" d="M1223.86,239.66l0.11,2.39c1.45-1.83,3.35-2.74,5.7-2.74c4.02,0,6.05,2.27,6.08,6.8v12.57h-3.25V246.1
						c-0.01-1.37-0.33-2.38-0.94-3.04c-0.62-0.66-1.57-0.98-2.87-0.98c-1.05,0-1.98,0.28-2.78,0.84c-0.8,0.56-1.42,1.3-1.86,2.21
						v13.55h-3.25v-19.02H1223.86z"/>
				</g>
				<g>
					<path class="st19" d="M1245.06,235.06v4.61h3.55v2.51h-3.55v11.81c0,0.76,0.16,1.33,0.47,1.72c0.32,0.38,0.86,0.57,1.62,0.57
						c0.38,0,0.89-0.07,1.55-0.21v2.62c-0.86,0.23-1.69,0.35-2.5,0.35c-1.45,0-2.55-0.44-3.29-1.32c-0.74-0.88-1.11-2.13-1.11-3.74
						v-11.79h-3.46v-2.51h3.46v-4.61H1245.06z"/>
				</g>
				<g>
					<path class="st19" d="M1264.15,258.68c-0.19-0.38-0.34-1.04-0.46-2c-1.51,1.57-3.32,2.36-5.41,2.36
						c-1.88,0-3.41-0.53-4.61-1.59c-1.2-1.06-1.8-2.41-1.8-4.03c0-1.98,0.75-3.52,2.26-4.61s3.62-1.64,6.35-1.64h3.16v-1.49
						c0-1.14-0.34-2.04-1.02-2.72c-0.68-0.67-1.68-1.01-3.01-1.01c-1.16,0-2.13,0.29-2.92,0.88c-0.79,0.59-1.18,1.29-1.18,2.13
						h-3.27c0-0.95,0.34-1.87,1.01-2.75c0.67-0.88,1.59-1.58,2.74-2.1c1.15-0.52,2.42-0.77,3.81-0.77c2.19,0,3.91,0.55,5.15,1.64
						c1.24,1.1,1.89,2.6,1.93,4.53v8.75c0,1.75,0.22,3.13,0.67,4.17v0.28H1264.15z M1258.75,256.2c1.02,0,1.99-0.26,2.9-0.79
						c0.91-0.53,1.58-1.21,1.99-2.06v-3.9h-2.55c-3.98,0-5.98,1.17-5.98,3.5c0,1.02,0.34,1.82,1.02,2.39
						C1256.81,255.92,1257.68,256.2,1258.75,256.2z"/>
				</g>
				<g>
					<path class="st19" d="M1279.62,256.38c1.16,0,2.17-0.35,3.04-1.05c0.87-0.7,1.35-1.58,1.44-2.64h3.08
						c-0.06,1.09-0.43,2.13-1.12,3.11c-0.69,0.98-1.61,1.77-2.77,2.36c-1.15,0.59-2.38,0.88-3.67,0.88c-2.59,0-4.65-0.86-6.18-2.59
						c-1.53-1.73-2.29-4.09-2.29-7.09v-0.54c0-1.85,0.34-3.5,1.02-4.94c0.68-1.44,1.65-2.56,2.93-3.36c1.27-0.8,2.77-1.2,4.51-1.2
						c2.13,0,3.91,0.64,5.32,1.92c1.41,1.28,2.16,2.94,2.26,4.97h-3.08c-0.09-1.23-0.56-2.24-1.4-3.03
						c-0.84-0.79-1.87-1.19-3.1-1.19c-1.65,0-2.93,0.59-3.84,1.78c-0.91,1.19-1.36,2.91-1.36,5.16v0.62c0,2.19,0.45,3.88,1.35,5.06
						C1276.65,255.79,1277.94,256.38,1279.62,256.38z"/>
				</g>
				<g>
					<path class="st19" d="M1295.24,235.06v4.61h3.55v2.51h-3.55v11.81c0,0.76,0.16,1.33,0.48,1.72c0.32,0.38,0.86,0.57,1.62,0.57
						c0.38,0,0.89-0.07,1.55-0.21v2.62c-0.86,0.23-1.69,0.35-2.5,0.35c-1.45,0-2.55-0.44-3.29-1.32c-0.74-0.88-1.11-2.13-1.11-3.74
						v-11.79h-3.46v-2.51h3.46v-4.61H1295.24z"/>
				</g>
				<g>
					<path class="st19" d="M1313.66,253.64c0-0.88-0.33-1.56-0.99-2.05c-0.66-0.49-1.82-0.91-3.46-1.26
						c-1.65-0.35-2.95-0.77-3.92-1.27c-0.97-0.49-1.68-1.08-2.14-1.76c-0.46-0.68-0.69-1.49-0.69-2.43c0-1.56,0.66-2.88,1.98-3.96
						c1.32-1.08,3-1.62,5.05-1.62c2.16,0,3.91,0.56,5.25,1.67c1.34,1.11,2.01,2.54,2.01,4.27h-3.27c0-0.89-0.38-1.66-1.13-2.3
						c-0.76-0.64-1.71-0.97-2.86-0.97c-1.18,0-2.11,0.26-2.78,0.77c-0.67,0.52-1,1.19-1,2.02c0,0.79,0.31,1.38,0.93,1.78
						c0.62,0.4,1.74,0.78,3.37,1.14c1.62,0.36,2.94,0.8,3.95,1.3c1.01,0.5,1.75,1.11,2.24,1.82c0.49,0.71,0.73,1.57,0.73,2.59
						c0,1.7-0.68,3.06-2.04,4.09c-1.36,1.03-3.12,1.54-5.29,1.54c-1.52,0-2.87-0.27-4.04-0.81c-1.17-0.54-2.09-1.29-2.75-2.26
						c-0.66-0.97-0.99-2.01-0.99-3.14h3.25c0.06,1.09,0.5,1.95,1.31,2.59c0.81,0.64,1.89,0.96,3.23,0.96c1.23,0,2.22-0.25,2.96-0.75
						C1313.29,255.13,1313.66,254.47,1313.66,253.64z"/>
				</g>
			</g>
			<g>
				<g id="_1_">
					<g>
						<path class="st28" d="M2425.84,297.88h-162.99c-28.67,0-52-23.33-52-52c0-28.67,23.33-52,52-52h162.99c28.67,0,52,23.33,52,52
							C2477.84,274.56,2454.52,297.88,2425.84,297.88z M2262.85,197.88c-26.47,0-48,21.53-48,48c0,26.47,21.53,48,48,48h162.99
							c26.47,0,48-21.53,48-48c0-26.47-21.53-48-48-48H2262.85z"/>
					</g>
				</g>
				<g>
					<g>
						<path class="st28" d="M2301.64,252.35h12.13v2.76h-15.52v-25.59h3.39V252.35z"/>
					</g>
					<g>
						<path class="st28" d="M2316.25,245.43c0-1.86,0.37-3.54,1.1-5.03s1.75-2.64,3.06-3.45c1.31-0.81,2.8-1.21,4.47-1.21
							c2.59,0,4.69,0.9,6.29,2.69c1.6,1.79,2.4,4.18,2.4,7.15v0.23c0,1.85-0.35,3.51-1.06,4.98c-0.71,1.47-1.72,2.62-3.04,3.44
							s-2.83,1.23-4.54,1.23c-2.58,0-4.67-0.9-6.27-2.69s-2.4-4.17-2.4-7.12V245.43z M2319.52,245.81c0,2.11,0.49,3.8,1.47,5.08
							c0.98,1.28,2.29,1.92,3.93,1.92c1.65,0,2.96-0.65,3.94-1.94c0.97-1.29,1.46-3.11,1.46-5.44c0-2.09-0.49-3.78-1.49-5.07
							c-0.99-1.29-2.31-1.94-3.95-1.94c-1.61,0-2.9,0.64-3.88,1.92C2320.01,241.61,2319.52,243.44,2319.52,245.81z"/>
					</g>
					<g>
						<path class="st28" d="M2336.87,245.44c0-2.96,0.69-5.32,2.06-7.08c1.37-1.75,3.19-2.63,5.45-2.63c2.32,0,4.13,0.82,5.43,2.46
							l0.16-2.11h2.97v18.56c0,2.46-0.73,4.4-2.19,5.82c-1.46,1.42-3.42,2.13-5.88,2.13c-1.37,0-2.71-0.29-4.03-0.88
							c-1.31-0.59-2.31-1.39-3.01-2.41l1.69-1.95c1.39,1.72,3.1,2.58,5.12,2.58c1.58,0,2.82-0.45,3.7-1.34
							c0.88-0.89,1.33-2.14,1.33-3.76v-1.63c-1.3,1.5-3.08,2.25-5.33,2.25c-2.23,0-4.03-0.9-5.4-2.69
							C2337.55,250.98,2336.87,248.54,2336.87,245.44z M2340.13,245.81c0,2.14,0.44,3.83,1.32,5.05c0.88,1.22,2.11,1.84,3.69,1.84
							c2.05,0,3.56-0.93,4.52-2.79v-8.68c-1-1.82-2.49-2.72-4.48-2.72c-1.58,0-2.82,0.62-3.71,1.85
							C2340.58,241.58,2340.13,243.4,2340.13,245.81z"/>
					</g>
					<g>
						<path class="st28" d="M2366.77,231.05c0-0.53,0.16-0.97,0.48-1.34c0.32-0.36,0.8-0.54,1.43-0.54s1.11,0.18,1.44,0.54
							s0.49,0.81,0.49,1.34c0,0.53-0.16,0.97-0.49,1.32c-0.33,0.35-0.81,0.53-1.44,0.53s-1.11-0.18-1.43-0.53
							C2366.93,232.02,2366.77,231.58,2366.77,231.05z M2370.28,255.11h-3.25v-19.02h3.25V255.11z"/>
					</g>
					<g>
						<path class="st28" d="M2378.56,236.09l0.11,2.39c1.45-1.83,3.35-2.74,5.7-2.74c4.02,0,6.05,2.27,6.08,6.8v12.57h-3.25v-12.59
							c-0.01-1.37-0.33-2.38-0.94-3.04c-0.62-0.66-1.57-0.98-2.87-0.98c-1.05,0-1.98,0.28-2.78,0.84s-1.42,1.3-1.86,2.21v13.55
							h-3.25v-19.02H2378.56z"/>
					</g>
				</g>
			</g>
			<g>
				<g>
					<path class="st28" d="M2743.28,295.88h-162.99c-27.61,0-50-22.39-50-50l0,0c0-27.61,22.39-50,50-50h162.99
						c27.61,0,50,22.39,50,50l0,0C2793.28,273.5,2770.9,295.88,2743.28,295.88z"/>
				</g>
				<g>
					<g>
						<g>
							<path class="st0" d="M2612.88,243.7c-2.89-0.83-5-1.85-6.32-3.07c-1.32-1.21-1.98-2.71-1.98-4.49c0-2.02,0.81-3.68,2.42-5
								c1.61-1.32,3.71-1.98,6.28-1.98c1.76,0,3.33,0.34,4.7,1.02c1.38,0.68,2.44,1.62,3.2,2.81c0.76,1.2,1.13,2.5,1.13,3.92h-3.39
								c0-1.55-0.49-2.77-1.48-3.66c-0.98-0.89-2.37-1.33-4.17-1.33c-1.66,0-2.96,0.37-3.89,1.1c-0.93,0.73-1.4,1.75-1.4,3.06
								c0,1.04,0.44,1.93,1.33,2.65s2.39,1.38,4.52,1.98c2.13,0.6,3.79,1.26,4.99,1.98c1.2,0.72,2.09,1.56,2.67,2.52
								c0.58,0.96,0.87,2.09,0.87,3.39c0,2.07-0.81,3.74-2.43,4.98c-1.62,1.25-3.78,1.87-6.49,1.87c-1.76,0-3.4-0.34-4.92-1.01
								s-2.7-1.6-3.53-2.77c-0.83-1.17-1.24-2.5-1.24-3.99h3.39c0,1.55,0.57,2.77,1.71,3.67c1.14,0.9,2.67,1.34,4.58,1.34
								c1.78,0,3.15-0.36,4.1-1.09c0.95-0.73,1.42-1.72,1.42-2.97c0-1.25-0.44-2.22-1.32-2.91
								C2616.78,245.05,2615.19,244.37,2612.88,243.7z"/>
						</g>
						<g>
							<path class="st0" d="M2626.2,231.05c0-0.53,0.16-0.97,0.48-1.34c0.32-0.36,0.8-0.54,1.43-0.54s1.11,0.18,1.44,0.54
								s0.49,0.81,0.49,1.34c0,0.53-0.16,0.97-0.49,1.32c-0.33,0.35-0.81,0.53-1.44,0.53s-1.11-0.18-1.43-0.53
								C2626.36,232.02,2626.2,231.58,2626.2,231.05z M2629.72,255.11h-3.25v-19.02h3.25V255.11z"/>
						</g>
						<g>
							<path class="st0" d="M2634.15,245.44c0-2.96,0.69-5.32,2.06-7.08c1.37-1.75,3.19-2.63,5.45-2.63c2.32,0,4.13,0.82,5.43,2.46
								l0.16-2.11h2.97v18.56c0,2.46-0.73,4.4-2.19,5.82c-1.46,1.42-3.42,2.13-5.88,2.13c-1.37,0-2.71-0.29-4.03-0.88
								c-1.31-0.59-2.31-1.39-3.01-2.41l1.69-1.95c1.39,1.72,3.1,2.58,5.12,2.58c1.58,0,2.82-0.45,3.7-1.34
								c0.88-0.89,1.33-2.14,1.33-3.76v-1.63c-1.3,1.5-3.08,2.25-5.33,2.25c-2.23,0-4.03-0.9-5.41-2.69
								C2634.83,250.98,2634.15,248.54,2634.15,245.44z M2637.42,245.81c0,2.14,0.44,3.83,1.32,5.05c0.88,1.22,2.11,1.84,3.69,1.84
								c2.05,0,3.56-0.93,4.52-2.79v-8.68c-1-1.82-2.49-2.72-4.48-2.72c-1.58,0-2.82,0.62-3.71,1.85
								C2637.86,241.58,2637.42,243.4,2637.42,245.81z"/>
						</g>
						<g>
							<path class="st0" d="M2658.19,236.09l0.11,2.39c1.45-1.83,3.35-2.74,5.7-2.74c4.02,0,6.05,2.27,6.08,6.8v12.57h-3.25v-12.59
								c-0.01-1.37-0.33-2.38-0.94-3.04c-0.62-0.66-1.57-0.98-2.87-0.98c-1.05,0-1.98,0.28-2.78,0.84s-1.42,1.3-1.86,2.21v13.55
								h-3.25v-19.02H2658.19z"/>
						</g>
						<g>
							<path class="st0" d="M2695.63,253.23c-1.27,1.49-3.12,2.23-5.57,2.23c-2.03,0-3.57-0.59-4.63-1.77
								c-1.06-1.18-1.6-2.92-1.61-5.23v-12.38h3.25v12.29c0,2.88,1.17,4.32,3.52,4.32c2.48,0,4.14-0.93,4.96-2.78v-13.83h3.25v19.02
								h-3.09L2695.63,253.23z"/>
						</g>
						<g>
							<path class="st0" d="M2719.8,245.81c0,2.89-0.66,5.23-1.99,7c-1.32,1.77-3.12,2.65-5.38,2.65c-2.31,0-4.12-0.73-5.45-2.2
								v9.16h-3.25v-26.33h2.97l0.16,2.11c1.32-1.64,3.16-2.46,5.52-2.46c2.29,0,4.09,0.86,5.42,2.58c1.33,1.72,2,4.12,2,7.19
								V245.81z M2716.55,245.44c0-2.14-0.46-3.84-1.37-5.08c-0.91-1.24-2.17-1.86-3.76-1.86c-1.97,0-3.45,0.87-4.43,2.62v9.09
								c0.97,1.73,2.46,2.6,4.46,2.6c1.56,0,2.8-0.62,3.72-1.85C2716.09,249.72,2716.55,247.88,2716.55,245.44z"/>
						</g>
					</g>
				</g>
			</g>
		</g>
	</g>
</g>
</svg>
